<svg width="30" height="20" viewBox="0 0 30 20" fill="none" xmlns="http://www.w3.org/2000/svg">
<path fill-rule="evenodd" clip-rule="evenodd" d="M14.7755 19.8885C16.5218 19.4244 17.5581 17.6438 17.0902 15.9116C16.6223 14.1793 14.8273 13.1513 13.081 13.6155C11.3348 14.0796 10.2984 15.8602 10.7664 17.5924C11.2343 19.3247 13.0292 20.3527 14.7755 19.8885ZM14.2672 18.0066C14.9657 17.821 15.3802 17.1087 15.193 16.4158C15.0059 15.7229 14.2879 15.3117 13.5894 15.4974C12.8909 15.6831 12.4763 16.3953 12.6635 17.0882C12.8507 17.7811 13.5686 18.1923 14.2672 18.0066Z" fill="#0270A2"/>
<path d="M5.64081 1.12642C5.32066 1.21152 5.13067 1.53795 5.21645 1.85553C5.30224 2.17312 5.63131 2.36158 5.95146 2.27649L7.40594 1.88989C8.23834 1.66864 9.09393 2.15865 9.31697 2.98436L12.1035 13.3004C12.3554 13.1697 12.6255 13.0642 12.9116 12.9882C13.0217 12.9589 13.1319 12.9346 13.242 12.9151L10.4763 2.67621C10.0817 1.21533 8.56799 0.348385 7.09529 0.739825L5.64081 1.12642Z" fill="#0270A2"/>
<path d="M17.5493 15.2404C17.6176 15.4019 17.6756 15.5697 17.7226 15.7435C17.7813 15.9609 17.8203 16.1789 17.8406 16.3957L26.6217 14.0617C26.9419 13.9766 27.1319 13.6501 27.0461 13.3325C26.9603 13.015 26.6312 12.8265 26.3111 12.9116L17.5493 15.2404Z" fill="#0270A2"/>
<path d="M6.87847 3.02742C7.13459 2.95934 7.28659 2.6982 7.21796 2.44413L6.65314 0.353108C6.58451 0.099043 6.32125 -0.0517304 6.06513 0.0163461L5.83326 0.0779782C5.65863 0.124394 5.555 0.302448 5.60179 0.475673C5.64858 0.648898 5.54495 0.826952 5.37032 0.873368L2.35596 1.67458C2.09984 1.74266 1.94785 2.0038 2.01648 2.25787L2.24241 3.09428C2.31103 3.34834 2.57429 3.49912 2.83042 3.43104L5.84477 2.62983C6.0194 2.58341 6.19889 2.68621 6.24569 2.85944C6.29248 3.03267 6.47197 3.13547 6.6466 3.08905L6.87847 3.02742Z" fill="#0270A2"/>
<mask id="path-2-inside-1_1119_705" fill="white">
<path fill-rule="evenodd" clip-rule="evenodd" d="M22.2309 1.601L12.1333 4.30664L14.4161 12.826C15.4384 12.9807 16.3663 13.5372 16.9835 14.3707L25.0718 12.2035L22.2309 1.601Z"/>
</mask>
<path fill-rule="evenodd" clip-rule="evenodd" d="M22.2309 1.601L12.1333 4.30664L14.4161 12.826C15.4384 12.9807 16.3663 13.5372 16.9835 14.3707L25.0718 12.2035L22.2309 1.601Z" fill="white"/>
<path d="M12.1333 4.30664L11.9176 3.5017L11.1127 3.71738L11.3284 4.52232L12.1333 4.30664ZM22.2309 1.601L23.0358 1.38532L22.8201 0.580379L22.0152 0.796061L22.2309 1.601ZM14.4161 12.826L13.6111 13.0417L13.7523 13.5685L14.2914 13.65L14.4161 12.826ZM16.9835 14.3707L16.3138 14.8666L16.6514 15.3224L17.1992 15.1757L16.9835 14.3707ZM25.0718 12.2035L25.2875 13.0084L26.0924 12.7927L25.8768 11.9878L25.0718 12.2035ZM12.349 5.11158L22.4466 2.40594L22.0152 0.796061L11.9176 3.5017L12.349 5.11158ZM15.221 12.6104L12.9382 4.09096L11.3284 4.52232L13.6111 13.0417L15.221 12.6104ZM14.2914 13.65C15.0965 13.7718 15.8281 14.2107 16.3138 14.8666L17.6533 13.8748C16.9045 12.8636 15.7804 12.1896 14.5407 12.0021L14.2914 13.65ZM24.8561 11.3985L16.7679 13.5658L17.1992 15.1757L25.2875 13.0084L24.8561 11.3985ZM21.426 1.81668L24.2669 12.4192L25.8768 11.9878L23.0358 1.38532L21.426 1.81668Z" fill="#31373A" mask="url(#path-2-inside-1_1119_705)"/>
<path d="M19.3124 10.7289L18.9723 9.45958C18.5461 9.45255 18.2095 9.35981 17.9626 9.18138C17.7171 9.00038 17.5505 8.74629 17.4628 8.4191C17.3741 8.08788 17.4037 7.7823 17.5516 7.50238C17.7011 7.2199 17.9449 7.01495 18.2831 6.88753L18.2027 6.58761L18.642 6.46991L18.7224 6.76983C19.0538 6.72215 19.3387 6.76377 19.5773 6.89467C19.8153 7.02355 20.0012 7.23243 20.1348 7.52131L19.3952 7.82666C19.2849 7.60078 19.1204 7.47168 18.9018 7.43935L19.2191 8.62388C19.739 8.62528 20.115 8.70746 20.347 8.87043C20.5784 9.03137 20.738 9.27543 20.8257 9.60262C20.9236 9.96818 20.8951 10.3059 20.74 10.6159C20.587 10.9253 20.3211 11.1611 19.9424 11.3232L20.0942 11.8897L19.6549 12.0074L19.5072 11.456C19.1464 11.5072 18.8278 11.453 18.5512 11.2933C18.2746 11.1336 18.0527 10.863 17.8855 10.4813L18.6535 10.1846C18.7291 10.3376 18.827 10.4607 18.9473 10.554C19.0676 10.6473 19.1892 10.7057 19.3124 10.7289ZM18.46 7.54796C18.3517 7.62028 18.2752 7.71439 18.2305 7.83027C18.1858 7.94616 18.1791 8.06267 18.2105 8.17981C18.2392 8.28685 18.2983 8.37817 18.3878 8.45376C18.4768 8.52732 18.5945 8.5748 18.7409 8.59617L18.46 7.54796ZM19.763 10.6536C19.9069 10.5848 20.0114 10.4821 20.0766 10.3456C20.1412 10.207 20.1532 10.062 20.1127 9.91056C20.0764 9.77524 20.0049 9.66994 19.8981 9.59464C19.7928 9.51678 19.6423 9.47595 19.4464 9.47214L19.763 10.6536Z" fill="#31373A"/>
<path d="M18.2831 3.08985L19.0213 5.64856L18.035 5.4703L17.8317 5.43355L17.6794 5.57314L17.0355 6.16321L16.302 3.62068L18.2831 3.08985Z" stroke="#31373A" stroke-width="0.833333"/>
</svg>
