<svg width="22" height="22" viewBox="0 0 22 22" fill="none" xmlns="http://www.w3.org/2000/svg">
<path fill-rule="evenodd" clip-rule="evenodd" d="M11 1C5.47677 1 1 5.47677 1 11C1 16.5232 5.47677 21 11 21C16.5232 21 21 16.5232 21 11C21 5.47677 16.5232 1 11 1ZM4.64137 4.44415C5.31685 4.96221 6.05556 5.40092 6.85234 5.73318C7.44008 4.34092 8.2633 3.1106 9.2633 2.11254C7.48266 2.40867 5.88459 3.24028 4.64137 4.44415ZM10.3706 2V6.48323C9.35315 6.45032 8.37508 6.26839 7.45573 5.95419C8.12734 4.37161 9.12024 3.01484 10.337 2.00194L10.3706 2ZM13.9299 5.95419C13.2583 4.37161 12.2654 3.01484 11.0486 2.00194L11.0151 2V6.48323C12.0325 6.45097 13.0099 6.26839 13.9299 5.95419ZM12.1237 2.11161C13.9043 2.40774 15.5018 3.23935 16.7456 4.44322C16.0701 4.96128 15.3321 5.39999 14.534 5.73225C13.9469 4.34064 13.1231 3.11032 12.1237 2.11161ZM15.5187 10.371H19.3871C19.3097 8.27743 18.4936 6.37485 17.1884 4.90969C16.4542 5.48066 15.6491 5.96388 14.7781 6.32711C15.2291 7.57679 15.4832 8.94195 15.5187 10.371ZM11.016 10.3711V7.12921C12.1186 7.09566 13.1786 6.89501 14.1741 6.54985C14.5986 7.72985 14.8379 9.02082 14.8734 10.3718L11.016 10.3711ZM10.371 7.12939C9.26777 7.09584 8.20777 6.89455 7.21293 6.54939C6.78777 7.72939 6.54842 9.02036 6.51358 10.3713H10.371V7.12939ZM4.19935 4.90969C4.93355 5.48066 5.73871 5.96388 6.60903 6.32711C6.15806 7.57679 5.90387 8.94195 5.86839 10.371H2C2.07742 8.27743 2.89355 6.37485 4.19935 4.90969ZM5.86839 11.0165H2C2.08452 13.2978 3.04065 15.359 4.55548 16.8668C5.25871 16.3642 6.02065 15.9397 6.83806 15.621C6.2529 14.2216 5.90839 12.6648 5.86839 11.0165ZM10.371 11.0165V14.9036C9.35358 14.9345 8.36971 15.101 7.44261 15.3997C6.8839 14.0694 6.55422 12.5874 6.51358 11.0165H10.371ZM11.016 14.9036C12.0328 14.9345 13.0166 15.101 13.9444 15.3997C14.5024 14.0694 14.8328 12.5874 14.8734 11.0165H11.016V14.9036ZM16.8316 16.8659C16.1284 16.3639 15.3664 15.9388 14.5484 15.62C15.1342 14.2207 15.478 12.6639 15.5187 11.0155H19.3871C19.3026 13.2975 18.3458 15.3588 16.8316 16.8659ZM16.3463 17.3067C15.7095 16.8667 15.0231 16.4931 14.2895 16.2099C13.7263 17.3764 12.9908 18.4118 12.1237 19.2757C13.7192 19.0106 15.1682 18.3151 16.3463 17.3067ZM11.016 19.3872V15.5491C11.9399 15.5788 12.8354 15.7233 13.6799 15.9872C13.0212 17.3336 12.1224 18.493 11.0502 19.3859C11.0392 19.3859 11.0276 19.3865 11.016 19.3872ZM7.70685 15.9867C8.36491 17.3332 9.26427 18.4925 10.3365 19.3854L10.3383 19.3855C10.3492 19.3861 10.3597 19.3867 10.3707 19.3867V15.5486C9.4462 15.5783 8.55136 15.7228 7.70685 15.9867ZM9.26295 19.2757C7.66746 19.0106 6.21843 18.3157 5.04036 17.3067C5.67585 16.866 6.36294 16.4931 7.09714 16.2099C7.65972 17.3764 8.39585 18.4118 9.26295 19.2757Z" fill="#FFC801"/>
<path d="M6.85234 5.73318L6.6599 6.19467L7.11936 6.38627L7.31297 5.92764L6.85234 5.73318ZM4.64137 4.44415L4.29355 4.08496L3.87716 4.48816L4.33708 4.8409L4.64137 4.44415ZM9.2633 2.11254L9.61651 2.46643L10.722 1.36308L9.18128 1.61931L9.2633 2.11254ZM10.3706 6.48323L10.3544 6.98296L10.8706 6.99966V6.48323H10.3706ZM10.3706 2H10.8706V1.47032L10.3418 1.50083L10.3706 2ZM7.45573 5.95419L6.99546 5.75887L6.78553 6.25354L7.29403 6.42733L7.45573 5.95419ZM10.337 2.00194L10.3082 1.50277L10.1437 1.51225L10.0171 1.61766L10.337 2.00194ZM11.0486 2.00194L11.3685 1.61766L11.2419 1.51225L11.0774 1.50277L11.0486 2.00194ZM13.9299 5.95419L14.0915 6.42736L14.6002 6.25365L14.3902 5.75887L13.9299 5.95419ZM11.0151 2L11.0439 1.50083L10.5151 1.47032V2H11.0151ZM11.0151 6.48323H10.5151V6.99933L11.0309 6.98297L11.0151 6.48323ZM16.7456 4.44322L17.0499 4.83997L17.51 4.48714L17.0934 4.08394L16.7456 4.44322ZM12.1237 2.11161L12.2057 1.61838L10.6667 1.36244L11.7703 2.46527L12.1237 2.11161ZM14.534 5.73225L14.0733 5.92661L14.2668 6.38512L14.7262 6.19385L14.534 5.73225ZM19.3871 10.371V10.871H19.906L19.8868 10.3525L19.3871 10.371ZM15.5187 10.371L15.0189 10.3834L15.031 10.871H15.5187V10.371ZM17.1884 4.90969L17.5618 4.57711L17.2507 4.22788L16.8815 4.515L17.1884 4.90969ZM14.7781 6.32711L14.5856 5.86563L14.1461 6.04892L14.3078 6.49683L14.7781 6.32711ZM11.016 7.12921L11.0008 6.62944L10.516 6.64419V7.12921H11.016ZM11.016 10.3711H10.516V10.8711L11.0159 10.8711L11.016 10.3711ZM14.1741 6.54985L14.6445 6.38059L14.4772 5.91553L14.0103 6.07744L14.1741 6.54985ZM14.8734 10.3718L14.8733 10.8718L15.3867 10.8719L15.3732 10.3587L14.8734 10.3718ZM7.21293 6.54939L7.37683 6.07701L6.91002 5.91505L6.74254 6.3799L7.21293 6.54939ZM10.371 7.12939H10.871V6.64436L10.3862 6.62962L10.371 7.12939ZM6.51358 10.3713L6.01374 10.3584L6.00052 10.8713H6.51358V10.3713ZM10.371 10.3713V10.8713H10.871V10.3713H10.371ZM6.60903 6.32711L7.07935 6.49683L7.24094 6.04904L6.80161 5.86568L6.60903 6.32711ZM4.19935 4.90969L4.5063 4.515L4.13719 4.22795L3.82609 4.57702L4.19935 4.90969ZM5.86839 10.371V10.871H6.35613L6.36823 10.3834L5.86839 10.371ZM2 10.371L1.50034 10.3525L1.48117 10.871H2V10.371ZM2 11.0165V10.5165H1.48113L1.50034 11.035L2 11.0165ZM5.86839 11.0165L6.36824 11.0043L6.3564 10.5165H5.86839V11.0165ZM4.55548 16.8668L4.20276 17.2212L4.50233 17.5193L4.84621 17.2736L4.55548 16.8668ZM6.83806 15.621L7.0197 16.0868L7.497 15.9007L7.29936 15.4281L6.83806 15.621ZM10.371 14.9036L10.3862 15.4033L10.871 15.3886V14.9036H10.371ZM10.371 11.0165H10.871V10.5165H10.371V11.0165ZM7.44261 15.3997L6.98162 15.5933L7.15927 16.0163L7.59595 15.8756L7.44261 15.3997ZM6.51358 11.0165V10.5165H6.00048L6.01375 11.0294L6.51358 11.0165ZM13.9444 15.3997L13.7911 15.8756L14.2279 16.0163L14.4055 15.5931L13.9444 15.3997ZM11.016 14.9036H10.516V15.3886L11.0008 15.4033L11.016 14.9036ZM14.8734 11.0165L15.3733 11.0294L15.3865 10.5165H14.8734V11.0165ZM11.016 11.0165V10.5165H10.516V11.0165H11.016ZM14.5484 15.62L14.0871 15.427L13.8892 15.8998L14.3669 16.0859L14.5484 15.62ZM16.8316 16.8659L16.5411 17.2728L16.8849 17.5182L17.1843 17.2202L16.8316 16.8659ZM15.5187 11.0155V10.5155H15.0309L15.0188 11.0032L15.5187 11.0155ZM19.3871 11.0155L19.8867 11.034L19.9059 10.5155H19.3871V11.0155ZM14.2895 16.2099L14.4696 15.7435L14.0396 15.5775L13.8392 15.9925L14.2895 16.2099ZM16.3463 17.3067L16.6714 17.6865L17.1646 17.2644L16.6305 16.8953L16.3463 17.3067ZM12.1237 19.2757L11.7708 18.9215L10.6628 20.0254L12.2057 19.769L12.1237 19.2757ZM11.016 15.5491L11.0321 15.0494L10.516 15.0328V15.5491H11.016ZM11.016 19.3872H10.516V19.9157L11.0437 19.8864L11.016 19.3872ZM13.6799 15.9872L14.129 16.2069L14.385 15.6836L13.829 15.5099L13.6799 15.9872ZM11.0502 19.3859V19.8859H11.2311L11.3701 19.7701L11.0502 19.3859ZM10.3365 19.3854L10.0166 19.7696L10.1438 19.8756L10.3092 19.8847L10.3365 19.3854ZM7.70685 15.9867L7.55773 15.5095L7.00195 15.6831L7.25763 16.2063L7.70685 15.9867ZM10.3383 19.3855L10.3661 18.8863L10.3656 18.8863L10.3383 19.3855ZM10.3707 19.3867V19.8867H10.8707V19.3867H10.3707ZM10.3707 15.5486H10.8707V15.0323L10.3547 15.0489L10.3707 15.5486ZM5.04036 17.3067L4.75546 16.8958L4.22305 17.265L4.71511 17.6864L5.04036 17.3067ZM9.26295 19.2757L9.18097 19.769L10.7238 20.0254L9.61584 18.9215L9.26295 19.2757ZM7.09714 16.2099L7.54749 15.9927L7.34725 15.5775L6.91718 15.7434L7.09714 16.2099ZM1.5 11C1.5 5.75292 5.75292 1.5 11 1.5V0.5C5.20063 0.5 0.5 5.20063 0.5 11H1.5ZM11 20.5C5.75292 20.5 1.5 16.2471 1.5 11H0.5C0.5 16.7994 5.20063 21.5 11 21.5V20.5ZM20.5 11C20.5 16.2471 16.2471 20.5 11 20.5V21.5C16.7994 21.5 21.5 16.7994 21.5 11H20.5ZM11 1.5C16.2471 1.5 20.5 5.75292 20.5 11H21.5C21.5 5.20063 16.7994 0.5 11 0.5V1.5ZM7.04478 5.2717C6.29109 4.95741 5.58964 4.54131 4.94566 4.0474L4.33708 4.8409C5.04406 5.38312 5.82004 5.84444 6.6599 6.19467L7.04478 5.2717ZM8.91009 1.75864C7.86199 2.80471 7.0033 4.08996 6.3917 5.53872L7.31297 5.92764C7.87686 4.59189 8.66462 3.41649 9.61651 2.46643L8.91009 1.75864ZM4.98919 4.80334C6.1612 3.66843 7.66718 2.88485 9.34533 2.60576L9.18128 1.61931C7.29814 1.93249 5.60799 2.81213 4.29355 4.08496L4.98919 4.80334ZM10.8706 6.48323V2H9.87057V6.48323H10.8706ZM7.29403 6.42733C8.26043 6.7576 9.28755 6.94846 10.3544 6.98296L10.3867 5.98349C9.41875 5.95218 8.48974 5.77918 7.61742 5.48106L7.29403 6.42733ZM10.0171 1.61766C8.73476 2.68516 7.69583 4.10853 6.99546 5.75887L7.916 6.14952C8.55885 4.6347 9.50573 3.34451 10.6569 2.38621L10.0171 1.61766ZM10.3418 1.50083L10.3082 1.50277L10.3658 2.50111L10.3994 2.49917L10.3418 1.50083ZM10.7287 2.38621C11.8799 3.34451 12.8268 4.6347 13.4696 6.14952L14.3902 5.75887C13.6898 4.10853 12.6509 2.68516 11.3685 1.61766L10.7287 2.38621ZM10.9863 2.49917L11.0198 2.50111L11.0774 1.50277L11.0439 1.50083L10.9863 2.49917ZM11.5151 6.48323V2H10.5151V6.48323H11.5151ZM13.7683 5.48103C12.895 5.77927 11.9667 5.9528 10.9992 5.98348L11.0309 6.98297C12.0983 6.94913 13.1248 6.75751 14.0915 6.42736L13.7683 5.48103ZM17.0934 4.08394C15.7784 2.81124 14.0889 1.93157 12.2057 1.61838L12.0417 2.60483C13.7198 2.88391 15.2251 3.66746 16.3979 4.8025L17.0934 4.08394ZM14.7262 6.19385C15.5676 5.84354 16.343 5.38213 17.0499 4.83997L16.4413 4.04647C15.7973 4.54044 15.0966 4.95645 14.3418 5.27066L14.7262 6.19385ZM11.7703 2.46527C12.7218 3.4162 13.5102 4.59172 14.0733 5.92661L14.9947 5.5379C14.3837 4.08956 13.5243 2.80443 12.4771 1.75794L11.7703 2.46527ZM19.3871 9.87098H15.5187V10.871H19.3871V9.87098ZM16.8151 5.24227C18.0458 6.62394 18.8145 8.4165 18.8875 10.3895L19.8868 10.3525C19.8049 8.13836 18.9413 6.12576 17.5618 4.57711L16.8151 5.24227ZM14.9705 6.78859C15.886 6.40681 16.7293 5.90015 17.4954 5.30439L16.8815 4.515C16.1792 5.06117 15.4121 5.52096 14.5856 5.86563L14.9705 6.78859ZM16.0186 10.3586C15.9818 8.87837 15.7184 7.45989 15.2484 6.15739L14.3078 6.49683C14.7397 7.69368 14.9847 9.00553 15.0189 10.3834L16.0186 10.3586ZM10.516 7.12921V10.3711H11.516V7.12921H10.516ZM14.0103 6.07744C13.0621 6.40618 12.0522 6.59745 11.0008 6.62944L11.0312 7.62897C12.1849 7.59387 13.295 7.38385 14.3379 7.02226L14.0103 6.07744ZM15.3732 10.3587C15.3364 8.95731 15.0881 7.61339 14.6445 6.38059L13.7036 6.71911C14.1091 7.84631 14.3394 9.08433 14.3736 10.3849L15.3732 10.3587ZM11.0159 10.8711L14.8733 10.8718L14.8735 9.87179L11.0161 9.87114L11.0159 10.8711ZM7.04904 7.02176C8.09115 7.38332 9.20126 7.59405 10.3558 7.62916L10.3862 6.62962C9.33429 6.59763 8.3244 6.40577 7.37683 6.07701L7.04904 7.02176ZM7.01341 10.3842C7.04695 9.08379 7.27725 7.84593 7.68333 6.71887L6.74254 6.3799C6.2983 7.61284 6.04989 8.95692 6.01374 10.3584L7.01341 10.3842ZM10.371 9.87132H6.51358V10.8713H10.371V9.87132ZM9.871 7.12939V10.3713H10.871V7.12939H9.871ZM6.80161 5.86568C5.97569 5.52099 5.20862 5.06118 4.5063 4.515L3.89241 5.30439C4.65848 5.90014 5.50173 6.40678 6.41646 6.78854L6.80161 5.86568ZM6.36823 10.3834C6.40245 9.00553 6.64744 7.69368 7.07935 6.49683L6.13872 6.15739C5.66869 7.45989 5.4053 8.87837 5.36854 10.3586L6.36823 10.3834ZM2 10.871H5.86839V9.87098H2V10.871ZM3.82609 4.57702C2.44584 6.12571 1.58222 8.13835 1.50034 10.3525L2.49966 10.3895C2.57262 8.41651 3.34126 6.624 4.57262 5.24236L3.82609 4.57702ZM2 11.5165H5.86839V10.5165H2V11.5165ZM4.90821 16.5124C3.48037 15.0913 2.57935 13.1489 2.49966 10.998L1.50034 11.035C1.58969 13.4466 2.60092 15.6268 4.20276 17.2212L4.90821 16.5124ZM6.65643 15.1551C5.79688 15.4903 4.9986 15.9355 4.26476 16.46L4.84621 17.2736C5.51882 16.7929 6.24441 16.3891 7.0197 16.0868L6.65643 15.1551ZM5.36853 11.0286C5.41004 12.7391 5.76763 14.3572 6.37677 15.8139L7.29936 15.4281C6.73818 14.0861 6.40673 12.5906 6.36824 11.0043L5.36853 11.0286ZM10.871 14.9036V11.0165H9.871V14.9036H10.871ZM7.59595 15.8756C8.47627 15.592 9.41348 15.4329 10.3862 15.4033L10.3558 14.4038C9.29368 14.4361 8.26315 14.61 7.28927 14.9238L7.59595 15.8756ZM6.01375 11.0294C6.05599 12.6622 6.39876 14.2055 6.98162 15.5933L7.90361 15.2061C7.36904 13.9333 7.05246 12.5126 7.01341 11.0035L6.01375 11.0294ZM10.371 10.5165H6.51358V11.5165H10.371V10.5165ZM14.0976 14.9237C13.1232 14.61 12.0927 14.4361 11.0312 14.4038L11.0008 15.4033C11.9728 15.4329 12.9101 15.5919 13.7911 15.8756L14.0976 14.9237ZM14.3736 11.0035C14.3345 12.5125 14.0174 13.9332 13.4833 15.2063L14.4055 15.5931C14.9875 14.2055 15.331 12.6624 15.3733 11.0294L14.3736 11.0035ZM11.016 11.5165H14.8734V10.5165H11.016V11.5165ZM11.516 14.9036V11.0165H10.516V14.9036H11.516ZM14.3669 16.0859C15.1425 16.3881 15.8682 16.7925 16.5411 17.2728L17.1221 16.4589C16.3886 15.9353 15.5903 15.4894 14.7299 15.1542L14.3669 16.0859ZM15.0188 11.0032C14.9797 12.5897 14.6488 14.0852 14.0871 15.427L15.0096 15.8131C15.6195 14.3562 15.9764 12.7381 16.0185 11.0279L15.0188 11.0032ZM19.3871 10.5155H15.5187V11.5155H19.3871V10.5155ZM17.1843 17.2202C18.7855 15.6266 19.7974 13.4463 19.8867 11.034L18.8874 10.997C18.8077 13.1486 17.9061 15.0909 16.4789 16.5115L17.1843 17.2202ZM14.1094 16.6764C14.8029 16.9441 15.4546 17.2983 16.062 17.718L16.6305 16.8953C15.9644 16.4351 15.2433 16.0422 14.4696 15.7435L14.1094 16.6764ZM12.4766 19.6299C13.385 18.7249 14.1529 17.6428 14.7398 16.4273L13.8392 15.9925C13.2997 17.11 12.5966 18.0988 11.7708 18.9215L12.4766 19.6299ZM16.0211 16.9268C14.9108 17.8773 13.5454 18.5326 12.0417 18.7825L12.2057 19.769C13.893 19.4885 15.4257 18.7529 16.6714 17.6865L16.0211 16.9268ZM10.516 15.5491V19.3872H11.516V15.5491H10.516ZM13.829 15.5099C12.938 15.2315 11.9975 15.0804 11.0321 15.0494L10.9999 16.0489C11.8822 16.0772 12.7327 16.2151 13.5308 16.4644L13.829 15.5099ZM11.3701 19.7701C12.5002 18.8291 13.4414 17.6123 14.129 16.2069L13.2307 15.7674C12.6009 17.0549 11.7447 18.1569 10.7302 19.0017L11.3701 19.7701ZM11.0437 19.8864C11.0501 19.886 11.0526 19.8859 11.0544 19.8858C11.056 19.8858 11.0541 19.8859 11.0502 19.8859V18.8859C11.0228 18.8859 10.997 18.8875 10.9883 18.8879L11.0437 19.8864ZM10.6565 19.0012C9.64189 18.1563 8.78517 17.0544 8.15606 15.7672L7.25763 16.2063C7.94465 17.612 8.88664 18.8287 10.0166 19.7696L10.6565 19.0012ZM10.3656 18.8863L10.3638 18.8862L10.3092 19.8847L10.311 19.8848L10.3656 18.8863ZM10.3707 18.8867C10.374 18.8867 10.3758 18.8868 10.3751 18.8868C10.374 18.8867 10.3722 18.8866 10.3661 18.8863L10.3104 19.8847C10.3195 19.8852 10.3436 19.8867 10.3707 19.8867V18.8867ZM9.87072 15.5486V19.3867H10.8707V15.5486H9.87072ZM7.85596 16.464C8.65407 16.2146 9.50385 16.0767 10.3868 16.0484L10.3547 15.0489C9.38855 15.0799 8.44866 15.2311 7.55773 15.5095L7.85596 16.464ZM4.71511 17.6864C5.96102 18.7536 7.49378 19.4886 9.18097 19.769L9.34492 18.7825C7.84114 18.5326 6.47584 17.8779 5.36562 16.9269L4.71511 17.6864ZM6.91718 15.7434C6.14315 16.042 5.42106 16.4343 4.75546 16.8958L5.32527 17.7176C5.93064 17.2978 6.58274 16.9443 7.27709 16.6764L6.91718 15.7434ZM9.61584 18.9215C8.78994 18.0987 8.08631 17.1099 7.54749 15.9927L6.64678 16.4271C7.23313 17.6429 8.00176 18.725 8.91005 19.6299L9.61584 18.9215ZM10.9863 2.49917L11.0198 2.50111L11.0774 1.50277L11.0439 1.50083L10.9863 2.49917ZM10.3658 2.50111L10.3994 2.49917L10.3418 1.50083L10.3082 1.50277L10.3658 2.50111Z" fill="#FFC801"/>
</svg>
