<svg width="500" height="500" viewBox="0 0 500 500" fill="none" xmlns="http://www.w3.org/2000/svg">
<path fill-rule="evenodd" clip-rule="evenodd" d="M262 276.353L300.637 266L327.554 366.456L305.923 354.036L292.869 305.317C292.583 304.25 291.486 303.617 290.42 303.903C289.353 304.189 288.719 305.285 289.005 306.352L301.678 353.647L286.341 367.195L262 276.353Z" fill="white"/>
<path fill-rule="evenodd" clip-rule="evenodd" d="M237.554 279.353L198.917 269L172 369.456L193.631 357.036L206.685 308.317C206.971 307.25 208.068 306.617 209.135 306.903C210.202 307.189 210.835 308.285 210.549 309.352L197.876 356.647L213.213 370.195L237.554 279.353Z" fill="white"/>
<path fill-rule="evenodd" clip-rule="evenodd" d="M263.471 126.104C255.36 120.632 244.739 120.632 236.628 126.104L224.961 133.974C222.289 135.777 219.282 137.022 216.118 137.637L202.303 140.322C192.698 142.188 185.188 149.698 183.322 159.303L180.637 173.118C180.022 176.282 178.777 179.289 176.974 181.961L169.104 193.628C163.632 201.739 163.632 212.36 169.104 220.471L176.974 232.138C178.777 234.81 180.022 237.818 180.637 240.982L183.322 254.797C185.188 264.401 192.698 271.911 202.303 273.778L216.118 276.462C219.282 277.077 222.289 278.323 224.961 280.125L236.628 287.996C244.739 293.467 255.36 293.467 263.471 287.996L275.138 280.125C277.81 278.323 280.818 277.077 283.982 276.462L297.797 273.778C307.401 271.911 314.911 264.401 316.778 254.797L319.462 240.982C320.077 237.818 321.323 234.81 323.125 232.138L330.996 220.471C336.467 212.36 336.467 201.739 330.996 193.628L323.125 181.961C321.323 179.289 320.077 176.282 319.462 173.118L316.778 159.303C314.911 149.698 307.401 142.188 297.797 140.322L283.982 137.637C280.818 137.022 277.81 135.777 275.138 133.974L263.471 126.104ZM250.05 262.05C280.425 262.05 305.05 237.425 305.05 207.05C305.05 176.674 280.425 152.05 250.05 152.05C219.674 152.05 195.05 176.674 195.05 207.05C195.05 237.425 219.674 262.05 250.05 262.05Z" fill="white"/>
<path d="M250 162L260.103 193.094H292.798L266.347 212.312L276.45 243.406L250 224.188L223.55 243.406L233.653 212.312L207.202 193.094H239.897L250 162Z" fill="white"/>
<path fill-rule="evenodd" clip-rule="evenodd" d="M187.835 11.0797C189.919 5.6126 195.165 2 201.02 2H297.979C303.834 2 309.081 5.6126 311.165 11.0797L333.584 69.8873C344.252 74.8544 354.406 80.738 363.946 87.4356L426.168 77.4266C431.948 76.4963 437.702 79.2303 440.63 84.2963L489.11 168.203C492.037 173.269 491.529 179.615 487.833 184.153L448.043 232.998C448.546 238.766 448.802 244.603 448.802 250.5C448.802 256.397 448.546 262.234 448.043 268.001L487.833 316.846C491.529 321.384 492.037 327.73 489.11 332.796L440.63 416.703C437.702 421.769 431.948 424.503 426.168 423.573L363.947 413.564C354.407 420.262 344.253 426.146 333.584 431.113L311.165 489.92C309.081 495.387 303.834 499 297.979 499H201.02C195.165 499 189.919 495.387 187.835 489.92L165.415 431.113C154.747 426.146 144.592 420.262 135.052 413.564L72.8322 423.573C67.0518 424.503 61.2973 421.769 58.3701 416.703L9.89042 332.797C6.96319 327.73 7.47087 321.384 11.1671 316.846L50.956 268.002C50.4535 262.234 50.1968 256.397 50.1968 250.5C50.1968 244.603 50.4535 238.765 50.956 232.997L11.1671 184.153C7.47087 179.615 6.96319 173.269 9.89042 168.203L58.3701 84.2972C61.2973 79.2303 67.0518 76.4963 72.8322 77.4266L135.053 87.4356C144.593 80.738 154.747 74.8544 165.415 69.8873L187.835 11.0797ZM249 405C334.604 405 404 335.604 404 250C404 164.396 334.604 95 249 95C163.396 95 94 164.396 94 250C94 335.604 163.396 405 249 405Z" fill="white"/>
</svg>
