<svg width="32" height="32" viewBox="0 0 32 32" fill="none" xmlns="http://www.w3.org/2000/svg">
<path fill-rule="evenodd" clip-rule="evenodd" d="M3 0C1.34315 0 0 1.34315 0 3V29C0 30.6569 1.34315 32 3 32H29C30.6569 32 32 30.6569 32 29V3C32 1.34315 30.6569 0 29 0H3ZM25.6998 5.90393H22.3263L16.7674 12.2583L11.9611 5.90393H5L13.3174 16.78L5.43443 25.7899H8.80995L14.894 18.838L20.2112 25.7899H27L18.3297 14.3274L25.6998 5.90393ZM23.0116 23.7707H21.1423L8.93946 7.81706H10.9454L23.0116 23.7707Z" fill="white"/>
</svg>
