<svg width="32" height="32" viewBox="0 0 32 32" fill="none" xmlns="http://www.w3.org/2000/svg">
<path fill-rule="evenodd" clip-rule="evenodd" d="M3 0C1.34315 0 0 1.34315 0 3V29C0 30.6569 1.34315 32 3 32H29C30.6569 32 32 30.6569 32 29V3C32 1.34315 30.6569 0 29 0H3ZM19.113 24.735V21.438C19.113 20.75 18.9188 20.391 18.5303 20.391C18.3064 20.391 18.0816 20.501 17.8577 20.735V25.438C18.0816 25.673 18.3064 25.782 18.5303 25.782C18.9188 25.782 19.113 25.438 19.113 24.735ZM24.166 22.173V21.454C24.166 20.751 23.9421 20.392 23.4933 20.392C23.0446 20.392 22.8207 20.751 22.8207 21.454V22.173H24.166ZM11.3236 18.048H9.72379L9.72475 26.939H8.22925V18.048H6.65912V16.579H11.3236V18.048ZM15.3604 26.939H14.0295L14.0285 26.938V26.094C13.4898 26.734 12.9817 27.047 12.5033 27.047C12.0699 27.047 11.7561 26.86 11.6365 26.469C11.5618 26.234 11.5169 25.875 11.5169 25.328V19.219H12.8478V24.907C12.8478 25.235 12.8478 25.407 12.8631 25.454C12.8928 25.673 12.998 25.782 13.1769 25.782C13.4468 25.782 13.73 25.564 14.0295 25.126V19.22H15.3604V26.939ZM20.443 21.548V24.626C20.443 25.345 20.4124 25.86 20.3081 26.188C20.1445 26.75 19.7703 27.047 19.247 27.047C18.7686 27.047 18.3055 26.766 17.8567 26.188V26.938H16.5258V16.579H17.8567V19.97C18.2902 19.407 18.7533 19.126 19.247 19.126C19.7703 19.126 20.1435 19.423 20.3081 20.001C20.4133 20.314 20.443 20.829 20.443 21.548ZM25.4969 24.267V24.47L25.495 24.471V24.4711C25.495 24.924 25.495 25.236 25.4653 25.377C25.4356 25.69 25.316 25.971 25.1515 26.221C24.7936 26.768 24.2396 27.049 23.5373 27.049C22.835 27.049 22.3116 26.783 21.9232 26.252C21.639 25.876 21.4897 25.267 21.4897 24.439V21.736C21.4897 20.907 21.6247 20.314 21.9088 19.923C22.2973 19.392 22.8207 19.126 23.5086 19.126C24.1813 19.126 24.7046 19.392 25.0931 19.923C25.362 20.314 25.4969 20.908 25.4969 21.736V23.345H22.8207V24.704C22.8207 25.423 23.0455 25.782 23.5086 25.782C23.8378 25.782 24.032 25.595 24.1066 25.22C24.121 25.142 24.1363 24.829 24.1363 24.267H25.4969ZM16.4071 6.923V10.204C16.4071 10.923 16.2129 11.298 15.7642 11.298C15.3307 11.298 15.1212 10.923 15.1212 10.204V6.923C15.1212 6.204 15.3307 5.845 15.7642 5.845C16.2129 5.845 16.4071 6.204 16.4071 6.923ZM26.7675 27.408C27.1407 25.658 27.156 23.736 27.156 21.939C27.156 20.126 27.156 18.22 26.7675 16.47C26.4987 15.236 25.5265 14.33 24.3755 14.189C21.6247 13.876 18.8432 13.876 16.078 13.876C13.3128 13.876 10.5313 13.876 7.79581 14.189C6.62946 14.329 5.67264 15.236 5.38847 16.47C5.01531 18.22 5 20.126 5 21.939C5 23.736 5 25.658 5.38847 27.408C5.65733 28.643 6.62946 29.549 7.7805 29.674C10.5313 30.002 13.3118 30.002 16.078 30.002C18.8442 30.002 21.6247 30.002 24.3755 29.674C25.5265 29.549 26.4834 28.642 26.7675 27.408ZM13.7606 2.001H12.2354L11.2174 6.109L10.1563 2H8.57179C8.88562 2.969 9.21477 3.953 9.54391 4.922C10.0223 6.376 10.3208 7.469 10.4558 8.235V12.469H11.9513V8.235L13.7606 2.001ZM17.7677 9.938V7.204C17.7677 6.376 17.6328 5.767 17.3486 5.376C16.9755 4.845 16.4521 4.579 15.7642 4.579C15.0915 4.579 14.5681 4.845 14.194 5.376C13.9099 5.767 13.7749 6.376 13.7749 7.204V9.938C13.7749 10.766 13.9099 11.376 14.194 11.782C14.5681 12.313 15.0915 12.579 15.7642 12.579C16.4512 12.579 16.9745 12.313 17.3486 11.782C17.6328 11.391 17.7677 10.766 17.7677 9.938ZM22.7757 4.674V4.673L22.7767 4.674H22.7757ZM22.7757 4.674H21.4161V10.627C21.1166 11.08 20.8324 11.299 20.5635 11.299C20.3846 11.299 20.2794 11.174 20.2497 10.955C20.2344 10.924 20.2344 10.736 20.2344 10.408V4.674H18.8738V10.83C18.8738 11.393 18.9188 11.768 18.9934 12.002C19.1283 12.393 19.4422 12.58 19.8756 12.58C20.3684 12.58 20.8774 12.267 21.4151 11.611V12.47H22.7757V4.674Z" fill="white"/>
</svg>
