0
SECTION
2
HEADER
9
$INSUNITS
70
1
9
$ACADVER
1
AC1014
9
$HANDSEED
5
FFFF
0
ENDSEC
0
SECTION
2
TABLES
0
TABLE
2
VPORT
5
8
100
AcDbSymbolTable
0
ENDTAB
0
TABLE
2
LTYPE
5
5
100
AcDbSymbolTable
0
LTYPE
5
14
100
AcDbSymbolTableRecord
100
AcDbLinetypeTableRecord
2
BYBLOCK
70
0
0
LTYPE
5
15
100
AcDbSymbolTableRecord
100
AcDbLinetypeTableRecord
2
BYLAYER
70
0
0
ENDTAB
0
TABLE
2
LAYER
5
2
100
AcDbSymbolTable
70
2
0
LAYER
5
50
100
AcDbSymbolTableRecord
100
AcDbLayerTableRecord
2
0
70
0
6
CONTINUOUS
0
ENDTAB
0
TABLE
2
STYLE
5
3
100
AcDbSymbolTable
70
1
0
STYLE
5
11
100
AcDbSymbolTableRecord
100
AcDbTextStyleTableRecord
2
STANDARD
70
0
0
ENDTAB
0
TABLE
2
VIEW
5
6
100
AcDbSymbolTable
70
0
0
ENDTAB
0
TABLE
2
UCS
5
7
100
AcDbSymbolTable
70
0
0
ENDTAB
0
TABLE
2
APPID
5
9
100
AcDbSymbolTable
70
2
0
APPID
5
12
100
AcDbSymbolTableRecord
100
AcDbRegAppTableRecord
2
ACAD
70
0
0
ENDTAB
0
TABLE
2
DIMSTYLE
5
A
100
AcDbSymbolTable
70
1
0
ENDTAB
0
TABLE
2
BLOCK_RECORD
5
1
100
AcDbSymbolTable
70
1
0
BLOCK_RECORD
5
1F
100
AcDbSymbolTableRecord
100
AcDbBlockTableRecord
2
*MODEL_SPACE
0
BLOCK_RECORD
5
1B
100
AcDbSymbolTableRecord
100
AcDbBlockTableRecord
2
*PAPER_SPACE
0
ENDTAB
0
ENDSEC
0
SECTION
2
BLOCKS
0
BLOCK
5
20
100
AcDbEntity
100
AcDbBlockBegin
2
*MODEL_SPACE
0
ENDBLK
5
21
100
AcDbEntity
100
AcDbBlockEnd
0
BLOCK
5
1C
100
AcDbEntity
100
AcDbBlockBegin
2
*PAPER_SPACE
0
ENDBLK
5
1D
100
AcDbEntity
100
AcDbBlockEnd
0
ENDSEC
0
SECTION
2
ENTITIES
0
LINE
5
100
100
AcDbEntity
8
OUTER_PROFILES
100
AcDbLine
10
3.8121481186560975
20
-2.0283554119128908
30
0
11
4.564592433972571
21
0.038968353816106013
31
0
0
LINE
5
101
100
AcDbEntity
8
OUTER_PROFILES
100
AcDbLine
10
4.564592433972571
20
0.038968353816106013
30
0
11
3.1550535027937059
21
0.55199856880461162
31
0
0
LINE
5
102
100
AcDbEntity
8
OUTER_PROFILES
100
AcDbLine
10
3.1550535027937059
20
0.55199856880461162
30
0
11
2.9583049193931013
21
0.011436278601768003
31
0
0
LINE
5
103
100
AcDbEntity
8
OUTER_PROFILES
100
AcDbLine
10
2.9583049193931013
20
0.011436278601768003
30
0
11
2.5901273280055639
21
0.51593345515786126
31
0
0
SPLINE
5
104
100
AcDbEntity
8
OUTER_PROFILES
100
AcDbSpline
70
0
71
3
72
8
73
4
74
0
42
0.000000001
43
0.0000000001
44
0.0000000001
40
-0.57392453324377479
40
-0.57392453324377479
40
-0.57392453324377479
40
-0.57392453324377479
40
-0.29874009275356339
40
-0.29874009275356339
40
-0.29874009275356339
40
-0.29874009275356339
10
2.5901273280055652
20
0.51593345515786582
30
0
10
2.5862862361196561
20
0.52388560792839967
30
0
10
2.5819938414377228
20
0.5305978164575188
30
0
10
2.577188178539036
20
0.53589983215098391
30
0
0
LINE
5
105
100
AcDbEntity
8
OUTER_PROFILES
100
AcDbLine
10
2.577188178539036
20
0.5358998321509838
30
0
11
2.5384482857633497
21
0.54999999999999938
31
0
0
LINE
5
106
100
AcDbEntity
8
OUTER_PROFILES
100
AcDbLine
10
2.5384482857633497
20
0.54999999999999938
30
0
11
-2.1539183396012729
21
0.54999999999999938
31
0
0
LINE
5
107
100
AcDbEntity
8
OUTER_PROFILES
100
AcDbLine
10
-2.1539183396012729
20
0.54999999999999938
30
0
11
-2.1926582323769233
21
0.53589983215100145
31
0
0
SPLINE
5
108
100
AcDbEntity
8
OUTER_PROFILES
100
AcDbSpline
70
0
71
3
72
8
73
4
74
0
42
0.000000001
43
0.0000000001
44
0.0000000001
40
0.29874009275313951
40
0.29874009275313951
40
0.29874009275313951
40
0.29874009275313951
40
0.57392453324378689
40
0.57392453324378689
40
0.57392453324378689
40
0.57392453324378689
10
-2.1926582323769219
20
0.53589983215099757
30
0
10
-2.197463895275618
20
0.53059781645752846
30
0
10
-2.2017562899575593
20
0.52388560792840033
30
0
10
-2.2055973818434742
20
0.51593345515785405
30
0
0
LINE
5
109
100
AcDbEntity
8
OUTER_PROFILES
100
AcDbLine
10
-2.2055973818434742
20
0.51593345515785405
30
0
11
-2.5737749732310546
21
0.011436278601850177
31
0
0
LINE
5
110
100
AcDbEntity
8
OUTER_PROFILES
100
AcDbLine
10
-2.5737749732310546
20
0.011436278601850177
30
0
11
-2.7705235566316295
21
0.55199856880461162
31
0
0
LINE
5
111
100
AcDbEntity
8
OUTER_PROFILES
100
AcDbLine
10
-2.7705235566316295
20
0.55199856880461162
30
0
11
-4.1800624878104937
21
0.03896835381610636
31
0
0
LINE
5
112
100
AcDbEntity
8
OUTER_PROFILES
100
AcDbLine
10
-4.1800624878104937
20
0.03896835381610636
30
0
11
-3.4276181724940207
21
-2.0283554119128908
31
0
0
LINE
5
113
100
AcDbEntity
8
OUTER_PROFILES
100
AcDbLine
10
-3.4276181724940207
20
-2.0283554119128908
30
0
11
-2.0180792413151551
21
-1.5153251969243866
31
0
0
LINE
5
114
100
AcDbEntity
8
OUTER_PROFILES
100
AcDbLine
10
-2.0180792413151551
20
-1.5153251969243866
30
0
11
-2.2602302251767559
21
-0.8500208366659201
31
0
0
LINE
5
115
100
AcDbEntity
8
OUTER_PROFILES
100
AcDbLine
10
-2.2602302251767559
20
-0.8500208366659201
30
0
11
-1.809104365009905
21
-0.68582445165744776
31
0
0
LINE
5
116
100
AcDbEntity
8
OUTER_PROFILES
100
AcDbLine
10
-1.809104365009905
20
-0.68582445165744776
30
0
11
-1.7729789633952509
21
-0.67267588076880269
31
0
0
LINE
5
117
100
AcDbEntity
8
OUTER_PROFILES
100
AcDbLine
10
-1.7729789633952509
20
-0.67267588076880269
30
0
11
-1.7163964442417958
21
-0.65208152801714825
31
0
0
LINE
5
118
100
AcDbEntity
8
OUTER_PROFILES
100
AcDbLine
10
-1.7163964442417958
20
-0.65208152801714825
30
0
11
-0.49194949957220702
21
-0.65208152801714958
31
0
0
ARC
5
119
100
AcDbEntity
8
OUTER_PROFILES
100
AcDbCircle
10
-0.49194949957220685
20
-0.55208152801714983
30
0
40
0.099999999999999811
210
0
220
0
230
1
100
AcDbArc
50
269.99999999999989
51
330.00000000000023
0
LINE
5
120
100
AcDbEntity
8
OUTER_PROFILES
100
AcDbLine
10
-0.40534695919376346
20
-0.60208152801714898
30
0
11
-0.086602540378442922
21
-0.05000000000000096
31
0
0
ARC
5
121
100
AcDbEntity
8
OUTER_PROFILES
100
AcDbCircle
10
2.92854104920809e-15
20
-0.10000000000000192
30
0
40
0.10000000000000261
210
0
220
0
230
1
100
AcDbArc
50
90.000000000001663
51
150.00000000000011
0
LINE
5
122
100
AcDbEntity
8
OUTER_PROFILES
100
AcDbLine
10
1.8369701987210883e-17
20
6.9935308637805131e-16
30
0
11
0.38452994616207659
21
-6.9935308637805131e-16
31
0
0
ARC
5
123
100
AcDbEntity
8
OUTER_PROFILES
100
AcDbCircle
10
0.38452994616207592
20
-0.10000000000000052
30
0
40
0.09999999999999995
210
0
220
-0
230
1
100
AcDbArc
50
29.999999999999726
51
89.999999999999616
0
LINE
5
124
100
AcDbEntity
8
OUTER_PROFILES
100
AcDbLine
10
0.47113248654051998
20
-0.050000000000000946
30
0
11
0.78987690535583988
21
-0.60208152801714931
31
0
0
ARC
5
125
100
AcDbEntity
8
OUTER_PROFILES
100
AcDbCircle
10
0.87647944573428327
20
-0.55208152801715049
30
0
40
0.099999999999999034
210
0
220
0
230
1
100
AcDbArc
50
209.99999999999957
51
270.00000000000023
0
LINE
5
126
100
AcDbEntity
8
OUTER_PROFILES
100
AcDbLine
10
0.8764794457342836
20
-0.65208152801714958
30
0
11
2.1009263904038731
21
-0.65208152801714825
31
0
0
LINE
5
127
100
AcDbEntity
8
OUTER_PROFILES
100
AcDbLine
10
2.1009263904038731
20
-0.65208152801714825
30
0
11
2.1575089095573388
21
-0.67267588076880802
31
0
0
LINE
5
128
100
AcDbEntity
8
OUTER_PROFILES
100
AcDbLine
10
2.1575089095573388
20
-0.67267588076880802
30
0
11
2.1936343111720369
21
-0.68582445165747008
31
0
0
LINE
5
129
100
AcDbEntity
8
OUTER_PROFILES
100
AcDbLine
10
2.1936343111720369
20
-0.68582445165747008
30
0
11
2.6447601713388322
21
-0.85002083666592154
31
0
0
LINE
5
130
100
AcDbEntity
8
OUTER_PROFILES
100
AcDbLine
10
2.6447601713388322
20
-0.85002083666592154
30
0
11
2.402609187477232
21
-1.5153251969243866
31
0
0
LINE
5
131
100
AcDbEntity
8
OUTER_PROFILES
100
AcDbLine
10
2.402609187477232
20
-1.5153251969243866
30
0
11
3.8121481186560975
21
-2.0283554119128908
31
0
0
LWPOLYLINE
5
132
100
AcDbEntity
8
INTERIOR_PROFILES
100
AcDbPolyline
90
8
70
1
43
0.0
10
3.5507340143890902
20
-0.8003426365915598
10
3.468685159165716
20
-0.68791478446789855
10
3.6594963348038183
20
-0.5486624708358474
10
3.9067582856476561
20
-0.88747438929164368
10
3.1237349140047619
20
-1.2757339621370447
10
2.6814295890963624
20
-1.1147479894129453
10
2.7622217489370708
20
-0.89277335458163054
10
3.1094474024293728
20
-1.0191531570264591
0
LWPOLYLINE
5
133
100
AcDbEntity
8
INTERIOR_PROFILES
100
AcDbPolyline
90
4
70
1
43
0.0
10
3.5858086521735584
20
-0.44769155706073027
10
3.3949974765355417
20
-0.58694387069271847
10
3.0470614278166828
20
-0.11018276869519415
10
3.1443752496047939
20
0.1571847592684712
0
LWPOLYLINE
5
134
100
AcDbEntity
8
INTERIOR_PROFILES
100
AcDbPolyline
90
8
70
1
43
0.0
10
-3.1662040682269872
20
-0.80034263659156257
10
-2.7249174562672911
20
-1.0191531570264549
10
-2.3776918027749949
20
-0.89277335458162899
10
-2.2968996429342861
20
-1.1147479894129453
10
-2.7392049678426855
20
-1.2757339621370447
10
-3.5222283394855789
20
-0.88747438929164368
10
-3.2749663886417411
20
-0.5486624708358474
10
-3.0841552130037804
20
-0.68791478446779486
0
CIRCLE
5
135
100
AcDbEntity
8
INTERIOR_PROFILES
100
AcDbCircle
10
0.7413964442417964
20
-0.14142135623735896
30
0
40
0.084999999999999978
210
0
220
0
230
-1
0
CIRCLE
5
136
100
AcDbEntity
8
INTERIOR_PROFILES
100
AcDbCircle
10
-2.0259263904038729
20
-0.14142135623735896
30
0
40
0.085000000000000159
210
0
220
0
230
-1
0
CIRCLE
5
137
100
AcDbEntity
8
INTERIOR_PROFILES
100
AcDbCircle
10
-1.8009263904038733
20
-0.44142135623736051
30
0
40
0.084999999999999812
210
0
220
0
230
-1
0
CIRCLE
5
138
100
AcDbEntity
8
INTERIOR_PROFILES
100
AcDbCircle
10
-1.5759263904038732
20
-0.14142135623735896
30
0
40
0.084999999999999812
210
0
220
0
230
-1
0
CIRCLE
5
139
100
AcDbEntity
8
INTERIOR_PROFILES
100
AcDbCircle
10
1.1913964442417964
20
-0.14142135623735896
30
0
40
0.084999999999999978
210
0
220
0
230
-1
0
LWPOLYLINE
5
140
100
AcDbEntity
8
INTERIOR_PROFILES
100
AcDbPolyline
90
4
70
1
43
0.0
10
-2.7598453034427175
20
0.1571847592684712
10
-2.6625314816546064
20
-0.11018276869519415
10
-3.0104675303734645
20
-0.58694387069271847
10
-3.2012787060114816
20
-0.44769155706073027
0
CIRCLE
5
141
100
AcDbEntity
8
INTERIOR_PROFILES
100
AcDbCircle
10
0.96639644424179638
20
-0.44142135623736051
30
0
40
0.084999999999999978
210
0
220
0
230
-1
0
CIRCLE
5
142
100
AcDbEntity
8
INTERIOR_PROFILES
100
AcDbCircle
10
0.51639644424179609
20
-0.44142135623736051
30
0
40
0.085000000000000075
210
0
220
0
230
-1
0
CIRCLE
5
143
100
AcDbEntity
8
INTERIOR_PROFILES
100
AcDbCircle
10
1.4163964442417962
20
-0.44142135623736051
30
0
40
0.085000000000000159
210
0
220
0
230
-1
0
CIRCLE
5
144
100
AcDbEntity
8
INTERIOR_PROFILES
100
AcDbCircle
10
-1.1259263904038732
20
-0.14142135623735896
30
0
40
0.084999999999999978
210
0
220
0
230
-1
0
CIRCLE
5
145
100
AcDbEntity
8
INTERIOR_PROFILES
100
AcDbCircle
10
1.6413964442417959
20
-0.14142135623735896
30
0
40
0.085000000000000159
210
0
220
0
230
-1
0
CIRCLE
5
146
100
AcDbEntity
8
INTERIOR_PROFILES
100
AcDbCircle
10
-1.3509263904038731
20
-0.44142135623736051
30
0
40
0.084999999999999978
210
0
220
0
230
-1
0
CIRCLE
5
147
100
AcDbEntity
8
INTERIOR_PROFILES
100
AcDbCircle
10
-0.90092639040387312
20
-0.44142135623736051
30
0
40
0.084999999999999978
210
0
220
0
230
-1
0
LINE
5
148
100
AcDbEntity
8
BEND
100
AcDbLine
10
2.1326654280943056
20
-0.65290601187830111
30
5.5948246910244168e-15
11
2.5667395453400834
21
0.53970282362416899
31
6.7144407915502885e-15
0
LINE
5
149
100
AcDbEntity
8
BEND
100
AcDbLine
10
-2.1822094467334781
20
0.53970287910942161
30
-1.1356379932002667e-14
11
-1.744687705029367
21
-0.66237870483368677
31
-9.9876362648365455e-15
0
LINE
5
150
100
AcDbEntity
8
BEND_EXTENT
100
AcDbLine
10
2.5901273280055639
20
0.51593345515786126
30
3.846441975079282e-15
11
2.1601320224056222
21
-0.66546893744946767
31
8.7419135797256407e-15
0
LINE
5
151
100
AcDbEntity
8
BEND_EXTENT
100
AcDbLine
10
2.1009263904038731
20
-0.65208152801714825
30
1.3987061727561026e-15
11
2.5384482857633497
21
0.54999999999999938
31
0
0
LINE
5
152
100
AcDbEntity
8
BEND_EXTENT
100
AcDbLine
10
-1.7756020762435309
20
-0.66546893744947466
30
-1.2588355554804924e-14
11
-2.2055973818434711
21
0.51593345515784939
31
-1.6784474073073231e-14
0
LINE
5
153
100
AcDbEntity
8
BEND_EXTENT
100
AcDbLine
10
-2.1539183396012729
20
0.54999999999999938
30
1.3987061727561026e-15
11
-1.7163964442417958
21
-0.65208152801714825
31
1.3987061727561026e-15
0
ENDSEC
0
SECTION
2
OBJECTS
0
DICTIONARY
5
C
100
AcDbDictionary
3
ACAD_GROUP
350
D
3
ACAD_MLINESTYLE
350
17
0
DICTIONARY
5
D
100
AcDbDictionary
0
DICTIONARY
5
1A
330
C
100
AcDbDictionary
0
DICTIONARY
5
17
100
AcDbDictionary
0
ENDSEC
0
EOF
