0
SECTION
2
HEADER
9
$INSUNITS
70
4
9
$ACADVER
1
AC1014
9
$HANDSEED
5
FFFF
0
ENDSEC
0
SECTION
2
TABLES
0
TABLE
2
VPORT
5
8
100
AcDbSymbolTable
0
ENDTAB
0
TABLE
2
LTYPE
5
5
100
AcDbSymbolTable
0
LTYPE
5
14
100
AcDbSymbolTableRecord
100
AcDbLinetypeTableRecord
2
BYBLOCK
70
0
0
LTYPE
5
15
100
AcDbSymbolTableRecord
100
AcDbLinetypeTableRecord
2
BYLAYER
70
0
0
ENDTAB
0
TABLE
2
LAYER
5
2
100
AcDbSymbolTable
70
2
0
LAYER
5
50
100
AcDbSymbolTableRecord
100
AcDbLayerTableRecord
2
0
70
0
6
CONTINUOUS
0
ENDTAB
0
TABLE
2
STYLE
5
3
100
AcDbSymbolTable
70
1
0
STYLE
5
11
100
AcDbSymbolTableRecord
100
AcDbTextStyleTableRecord
2
STANDARD
70
0
0
ENDTAB
0
TABLE
2
VIEW
5
6
100
AcDbSymbolTable
70
0
0
ENDTAB
0
TABLE
2
UCS
5
7
100
AcDbSymbolTable
70
0
0
ENDTAB
0
TABLE
2
APPID
5
9
100
AcDbSymbolTable
70
2
0
APPID
5
12
100
AcDbSymbolTableRecord
100
AcDbRegAppTableRecord
2
ACAD
70
0
0
ENDTAB
0
TABLE
2
DIMSTYLE
5
A
100
AcDbSymbolTable
70
1
0
ENDTAB
0
TABLE
2
BLOCK_RECORD
5
1
100
AcDbSymbolTable
70
1
0
BLOCK_RECORD
5
1F
100
AcDbSymbolTableRecord
100
AcDbBlockTableRecord
2
*MODEL_SPACE
0
BLOCK_RECORD
5
1B
100
AcDbSymbolTableRecord
100
AcDbBlockTableRecord
2
*PAPER_SPACE
0
ENDTAB
0
ENDSEC
0
SECTION
2
BLOCKS
0
BLOCK
5
20
100
AcDbEntity
100
AcDbBlockBegin
2
*MODEL_SPACE
0
ENDBLK
5
21
100
AcDbEntity
100
AcDbBlockEnd
0
BLOCK
5
1C
100
AcDbEntity
100
AcDbBlockBegin
2
*PAPER_SPACE
0
ENDBLK
5
1D
100
AcDbEntity
100
AcDbBlockEnd
0
ENDSEC
0
SECTION
2
ENTITIES
0
LWPOLYLINE
5
100
100
AcDbEntity
8
0
100
AcDbPolyline
90
27
70
1
43
0.0
10
18.000000000000004
20
-92.568912780201259
42
0.4142135623730937
10
19.000000000000007
20
-93.568912780201259
10
24.792949192431127
20
-93.568912780201259
42
0.26794919243110982
10
25.658974596215572
20
-93.068912780201259
42
-0.7673269879789314
10
27.525000000000006
20
-93.568912780201259
10
27.525000000000006
20
-96.000000000000014
10
49.427231196910711
20
-93.371732256370677
42
0.20859147343066339
10
50.806412924280238
20
-92.562321974746951
10
64.235586744856832
20
-74.097207971454196
42
0.14620567562859776
10
64.615802564437914
20
-73.017003547658646
10
67.049787304139443
20
-22.440822012628693
42
-0.32610081969510546
10
68.529837202121868
20
-20.605109331605075
10
69.565113382531948
20
-20.327707915121039
42
0.33945425886337821
10
71.047475292326908
20
-18.395856262542896
10
71.047475292326908
20
-13.433211408812188
42
0.38887873185298566
10
69.221786777822217
20
-11.440822012628686
10
40.673105013856834
20
-8.9431359996724442
42
-0.24469844322903408
10
39.115365691783275
20
-7.9507466034889536
10
36.257050807568888
20
-2.9999999999993276
42
0.26794919243112325
10
34.524999999999999
20
-1.9999999999993263
10
27.524999999999999
20
-1.9999999999993223
10
27.525000000000006
20
-11.250882452252807
42
0.13787083871730049
10
27.671446609406736
20
-11.771887835532798
42
-0.78691837382251495
10
26.296887835533475
20
-13.146446609406057
42
0.13787083871730257
10
25.77588245225348
20
-12.999999999999325
10
19.000000000000007
20
-12.999999999999329
42
0.41421356237309631
10
18.000000000000004
20
-13.999999999999327
0
CIRCLE
5
101
100
AcDbEntity
8
0
100
AcDbCircle
10
22.762500000000006
20
-65.293912780201723
30
2.4424906541753444e-14
40
2.1524999999999999
210
-0
220
3.3306690738754686e-16
230
1
0
CIRCLE
5
102
100
AcDbEntity
8
0
100
AcDbCircle
10
22.762500000000006
20
-39.893912780201688
30
1.1102230246251565e-14
40
2.1524999999999999
210
-0
220
3.3306690738754686e-16
230
1
0
CIRCLE
5
103
100
AcDbEntity
8
0
100
AcDbCircle
10
32
20
-7.5
30
2.2204460492503131e-15
40
2.1524999999999999
210
-0
220
3.3306690738754686e-16
230
1
0
CIRCLE
5
104
100
AcDbEntity
8
0
100
AcDbCircle
10
48.500000476837172
20
-89.500001363456349
30
3.1086244689504383e-14
40
2.1524999999999999
210
-0
220
3.3306690738754686e-16
230
1
0
CIRCLE
5
105
100
AcDbEntity
8
0
100
AcDbCircle
10
32.000000476837165
20
-91.500001363456335
30
3.1086244689504383e-14
40
2.1524999999999999
210
-0
220
3.3306690738754686e-16
230
1
0
CIRCLE
5
106
100
AcDbEntity
8
0
100
AcDbCircle
10
66
20
-16.5
30
6.6613381477509392e-15
40
2.1524999999999999
210
-0
220
3.3306690738754686e-16
230
1
0
CIRCLE
5
107
100
AcDbEntity
8
0
100
AcDbCircle
10
22.762500000000006
20
-27.193912780201686
30
8.8817841970012523e-15
40
2.1524999999999999
210
-0
220
3.3306690738754686e-16
230
1
0
CIRCLE
5
108
100
AcDbEntity
8
0
100
AcDbCircle
10
22.762500000000006
20
-52.593912780201713
30
1.9984014443252818e-14
40
2.1524999999999999
210
-0
220
3.3306690738754686e-16
230
1
0
CIRCLE
5
109
100
AcDbEntity
8
0
100
AcDbCircle
10
22.762500000000006
20
-77.993912780201725
30
2.4424906541753444e-14
40
2.1524999999999999
210
-0
220
3.3306690738754686e-16
230
1
0
ENDSEC
0
SECTION
2
OBJECTS
0
DICTIONARY
5
C
100
AcDbDictionary
3
ACAD_GROUP
350
D
3
ACAD_MLINESTYLE
350
17
0
DICTIONARY
5
D
100
AcDbDictionary
0
DICTIONARY
5
1A
330
C
100
AcDbDictionary
0
DICTIONARY
5
17
100
AcDbDictionary
0
ENDSEC
0
EOF
