0
SECTION
2
HEADER
9
$INSUNITS
70
4
9
$ACADVER
1
AC1014
9
$HANDSEED
5
FFFF
0
ENDSEC
0
SECTION
2
TABLES
0
TABLE
2
VPORT
5
8
100
AcDbSymbolTable
0
ENDTAB
0
TABLE
2
LTYPE
5
5
100
AcDbSymbolTable
0
LTYPE
5
14
100
AcDbSymbolTableRecord
100
AcDbLinetypeTableRecord
2
BYBLOCK
70
0
0
LTYPE
5
15
100
AcDbSymbolTableRecord
100
AcDbLinetypeTableRecord
2
BYLAYER
70
0
0
ENDTAB
0
TABLE
2
LAYER
5
2
100
AcDbSymbolTable
70
2
0
LAYER
5
50
100
AcDbSymbolTableRecord
100
AcDbLayerTableRecord
2
0
70
0
6
CONTINUOUS
0
ENDTAB
0
TABLE
2
STYLE
5
3
100
AcDbSymbolTable
70
1
0
STYLE
5
11
100
AcDbSymbolTableRecord
100
AcDbTextStyleTableRecord
2
STANDARD
70
0
0
ENDTAB
0
TABLE
2
VIEW
5
6
100
AcDbSymbolTable
70
0
0
ENDTAB
0
TABLE
2
UCS
5
7
100
AcDbSymbolTable
70
0
0
ENDTAB
0
TABLE
2
APPID
5
9
100
AcDbSymbolTable
70
2
0
APPID
5
12
100
AcDbSymbolTableRecord
100
AcDbRegAppTableRecord
2
ACAD
70
0
0
ENDTAB
0
TABLE
2
DIMSTYLE
5
A
100
AcDbSymbolTable
70
1
0
ENDTAB
0
TABLE
2
BLOCK_RECORD
5
1
100
AcDbSymbolTable
70
1
0
BLOCK_RECORD
5
1F
100
AcDbSymbolTableRecord
100
AcDbBlockTableRecord
2
*MODEL_SPACE
0
BLOCK_RECORD
5
1B
100
AcDbSymbolTableRecord
100
AcDbBlockTableRecord
2
*PAPER_SPACE
0
ENDTAB
0
ENDSEC
0
SECTION
2
BLOCKS
0
BLOCK
5
20
100
AcDbEntity
100
AcDbBlockBegin
2
*MODEL_SPACE
0
ENDBLK
5
21
100
AcDbEntity
100
AcDbBlockEnd
0
BLOCK
5
1C
100
AcDbEntity
100
AcDbBlockBegin
2
*PAPER_SPACE
0
ENDBLK
5
1D
100
AcDbEntity
100
AcDbBlockEnd
0
ENDSEC
0
SECTION
2
ENTITIES
0
LWPOLYLINE
5
100
100
AcDbEntity
8
0
100
AcDbPolyline
90
8
70
1
43
0.0
10
2.245064030267359
20
48.55493596973254
10
10.454935969733683
20
40.345064030265789
42
-0.41421356237311996
10
10.45493596973337
20
35.854935969731017
10
2.2450640302670353
20
27.645064030266543
42
-0.4142135623730287
10
-2.2450640302670326
20
27.645064030266543
10
-10.454935969733356
20
35.854935969731002
42
-0.41421356237311907
10
-10.454935969733675
20
40.34506403026576
10
-2.245064030267339
20
48.55493596973254
42
-0.41421356237311058
0
CIRCLE
5
101
100
AcDbEntity
8
0
100
AcDbCircle
10
-22.762500000000017
20
64.87969460044053
30
0
40
2.152499999999995
210
3.9652374893153241e-32
220
1.1102230246251568e-16
230
1
0
CIRCLE
5
102
100
AcDbEntity
8
0
100
AcDbCircle
10
-22.762500000000006
20
39.479694600440531
30
0
40
2.1524999999999803
210
8.1455945666968176e-32
220
5.5511151231257852e-17
230
1
0
CIRCLE
5
103
100
AcDbEntity
8
0
100
AcDbCircle
10
22.762500000000003
20
26.779694600440568
30
-2.2204460492503131e-15
40
2.1524999999999745
210
4.7152610695651565e-32
220
1.6653345369377353e-16
230
1
0
CIRCLE
5
104
100
AcDbEntity
8
0
100
AcDbCircle
10
22.762499999999989
20
52.179694600440556
30
-6.6613381477509392e-15
40
2.152499999999987
210
6.4304278181309876e-32
220
1.1102230246251568e-16
230
1
0
CIRCLE
5
105
100
AcDbEntity
8
0
100
AcDbCircle
10
22.762499999999978
20
77.579694600440561
30
-4.4408920985006262e-15
40
2.1524999999999932
210
3.9652374893153252e-32
220
1.1102230246251568e-16
230
1
0
CIRCLE
5
106
100
AcDbEntity
8
0
100
AcDbCircle
10
22.762499999999982
20
64.879694600440544
30
-6.6613381477509392e-15
40
2.1525000000000007
210
9.8607613152626476e-32
220
3.0467481845268028e-47
230
1
0
CIRCLE
5
107
100
AcDbEntity
8
0
100
AcDbCircle
10
22.762499999999996
20
39.479694600440553
30
-2.2204460492503131e-15
40
2.1524999999999803
210
8.1455945666968176e-32
220
5.5511151231257852e-17
230
1
0
CIRCLE
5
108
100
AcDbEntity
8
0
100
AcDbCircle
10
-22.762500000000003
20
26.779694600440529
30
0
40
2.1524999999999825
210
4.7152610695651576e-32
220
1.6653345369377348e-16
230
1
0
CIRCLE
5
109
100
AcDbEntity
8
0
100
AcDbCircle
10
-22.762500000000014
20
52.179694600440534
30
-2.2204460492503131e-15
40
2.1524999999999914
210
6.4304278181309876e-32
220
1.1102230246251568e-16
230
1
0
CIRCLE
5
110
100
AcDbEntity
8
0
100
AcDbCircle
10
-22.762500000000024
20
77.579694600440547
30
0
40
2.1525000000000039
210
7.3955709864469857e-32
220
2.2850611383951028e-47
230
1
0
LWPOLYLINE
5
111
100
AcDbEntity
8
0
100
AcDbPolyline
90
14
70
1
43
0.0
10
15.606280470940543
20
87.115833486612672
42
0.14806873911202489
10
15.874999999999988
20
88.003353800573052
10
15.874999999999988
20
93.868912780201867
10
27.524999999999999
20
93.868912780201754
10
27.524999999999999
20
12.700000000000014
10
-27.524999999999999
20
12.700000000000014
10
-27.524999999999999
20
93.868912780201754
10
-15.875000000000007
20
93.868912780201867
10
-15.875000000000004
20
88.003353800573066
42
0.14806873911202814
10
-15.606280470940552
20
87.115833486612672
10
-3.6499864573597698
20
69.181392466241377
42
0.25076489093331106
10
-2.3187059864192188
20
68.468912780201748
10
2.3187059864192037
20
68.468912780201748
42
0.25076489093331134
10
3.6499864573597574
20
69.181392466241377
0
ENDSEC
0
SECTION
2
OBJECTS
0
DICTIONARY
5
C
100
AcDbDictionary
3
ACAD_GROUP
350
D
3
ACAD_MLINESTYLE
350
17
0
DICTIONARY
5
D
100
AcDbDictionary
0
DICTIONARY
5
1A
330
C
100
AcDbDictionary
0
DICTIONARY
5
17
100
AcDbDictionary
0
ENDSEC
0
EOF
