0
SECTION
2
HEADER
9
$INSUNITS
70
1
9
$ACADVER
1
AC1014
9
$HANDSEED
5
FFFF
0
ENDSEC
0
SECTION
2
TABLES
0
TABLE
2
VPORT
5
8
100
AcDbSymbolTable
0
ENDTAB
0
TABLE
2
LTYPE
5
5
100
AcDbSymbolTable
0
LTYPE
5
14
100
AcDbSymbolTableRecord
100
AcDbLinetypeTableRecord
2
BYBLOCK
70
0
0
LTYPE
5
15
100
AcDbSymbolTableRecord
100
AcDbLinetypeTableRecord
2
BYLAYER
70
0
0
ENDTAB
0
TABLE
2
LAYER
5
2
100
AcDbSymbolTable
70
2
0
LAYER
5
50
100
AcDbSymbolTableRecord
100
AcDbLayerTableRecord
2
0
70
0
6
CONTINUOUS
0
ENDTAB
0
TABLE
2
STYLE
5
3
100
AcDbSymbolTable
70
1
0
STYLE
5
11
100
AcDbSymbolTableRecord
100
AcDbTextStyleTableRecord
2
STANDARD
70
0
0
ENDTAB
0
TABLE
2
VIEW
5
6
100
AcDbSymbolTable
70
0
0
ENDTAB
0
TABLE
2
UCS
5
7
100
AcDbSymbolTable
70
0
0
ENDTAB
0
TABLE
2
APPID
5
9
100
AcDbSymbolTable
70
2
0
APPID
5
12
100
AcDbSymbolTableRecord
100
AcDbRegAppTableRecord
2
ACAD
70
0
0
ENDTAB
0
TABLE
2
DIMSTYLE
5
A
100
AcDbSymbolTable
70
1
0
ENDTAB
0
TABLE
2
BLOCK_RECORD
5
1
100
AcDbSymbolTable
70
1
0
BLOCK_RECORD
5
1F
100
AcDbSymbolTableRecord
100
AcDbBlockTableRecord
2
*MODEL_SPACE
0
BLOCK_RECORD
5
1B
100
AcDbSymbolTableRecord
100
AcDbBlockTableRecord
2
*PAPER_SPACE
0
ENDTAB
0
ENDSEC
0
SECTION
2
BLOCKS
0
BLOCK
5
20
100
AcDbEntity
100
AcDbBlockBegin
2
*MODEL_SPACE
0
ENDBLK
5
21
100
AcDbEntity
100
AcDbBlockEnd
0
BLOCK
5
1C
100
AcDbEntity
100
AcDbBlockBegin
2
*PAPER_SPACE
0
ENDBLK
5
1D
100
AcDbEntity
100
AcDbBlockEnd
0
ENDSEC
0
SECTION
2
ENTITIES
0
CIRCLE
5
100
100
AcDbEntity
8
0
100
AcDbCircle
10
4.7874015748031491
20
0.73952755905511547
30
0
40
0.2165354330708664
210
0
220
-0
230
1
0
CIRCLE
5
101
100
AcDbEntity
8
0
100
AcDbCircle
10
4.1338583293158235
20
0.55118111057544317
30
0
40
0.18700787401574787
210
0
220
-0
230
1
0
LWPOLYLINE
5
102
100
AcDbEntity
8
0
100
AcDbPolyline
90
18
70
1
43
0.0
10
5.2842448421554922
20
0.56283000156057217
42
0.31694240566736764
10
5.2924655238629654
20
0.58396559837902673
42
-0.060802211428671121
10
5.1999999999999993
20
1.3415341561573484
10
5.1999999999999993
20
2.5879844916134509
42
0.06698249822360082
10
5.1733200144452498
20
2.7862473391238227
10
5.0018553484997268
20
3.4117998629877695
42
-0.22319830283907921
10
5.1108113297282349
20
4.0402450377614247
10
5.3393030975783642
20
4.3665651005735686
10
5.4999999999999991
20
4.5580762113533142
10
5.0170370868554643
20
4.6874857339045759
10
3.9999999999999982
20
4.2132335516762209
10
2.9495162952415979
20
2.8094447013904746
42
0.16200162173190738
10
2.8000000893600321
20
2.3600904836500272
10
2.8000000893600321
20
1.3415339827734447
42
-0.3293607732773311
10
2.2160647630340504
20
0.55122905093616037
42
0.52991196575740485
10
2.2064964990326978
20
0.52008847771189604
42
0.018971192217829488
10
2.3208061730866385
20
0.38827862149295861
42
0.088510895607842602
10
2.3263450267715777
20
0.38413846306982907
42
0.26905421284772368
0
LWPOLYLINE
5
103
100
AcDbEntity
8
0
100
AcDbPolyline
90
13
70
1
43
0.0
10
3.7081310535787302
20
3.3303682094064655
42
0.81774090377811737
10
3.7851982392272827
20
3.2439922534057306
42
-0.46902451267860745
10
4.5192643851895999
20
2.977298127305287
42
0.17906761722676134
10
4.5544509237236976
20
2.935486643251437
42
-0.027817215710752987
10
4.6593136146331826
20
2.8679072505159078
42
0.17906761722676445
10
4.7119263649337055
20
2.853135954072759
42
-0.016887701906539435
10
4.7461861723051566
20
2.8547438633671178
42
0.49084909266243409
10
4.8210917512543512
20
2.9542922346967972
10
4.7170836892693124
20
3.3337436238104572
42
-0.19290068403923727
10
4.8052215476106435
20
4.1063348514187474
42
0.7221835697643334
10
4.7026447966913931
20
4.215081634713397
10
4.2099071271903323
20
3.9853142859636064
42
0.12363390775833061
10
4.1801412376561693
20
3.9611277639124736
0
LWPOLYLINE
5
104
100
AcDbEntity
8
0
100
AcDbPolyline
90
24
70
1
43
0.0
10
4.6495304822207917
20
1.2776036914718742
42
0.73556521270652164
10
4.8897710878824912
20
1.6503841405948443
42
-0.21380910875265521
10
4.8373745239088608
20
1.8363357784714063
42
0.048914901456407429
10
4.8454455835740564
20
2.0013605874352094
42
-0.21380910875265569
10
4.9157377797444735
20
2.1813117438715004
42
0.73556521270651953
10
4.7130207436006577
20
2.5757564359565759
42
-0.2138091087526551
10
4.5257836193374157
20
2.6233554994226767
42
0.048914901456408429
10
4.386903472352687
20
2.7128576466100971
42
-0.21380910875265557
10
4.2662072975236791
20
2.8637080523996228
42
0.73556521270651665
10
3.8232496557181657
20
2.8853722953617282
42
-0.21380910875265499
10
3.6884090954285531
20
2.7470197209512675
42
0.048914901456403564
10
3.5414578887786274
20
2.6714970591748859
42
-0.21380910875265441
10
3.3504695177792048
20
2.6423963085281201
42
0.73556521270651765
10
3.1102289121175062
20
2.269615859405151
42
-0.21380910875265649
10
3.1626254760911365
20
2.0836642215285872
42
0.048914901456396979
10
3.1545544164259391
20
1.9186394125647859
42
-0.21380910875265546
10
3.0842622202555234
20
1.7386882561284949
42
0.7355652127065182
10
3.2869792563993383
20
1.3442435640434187
42
-0.21380910875265616
10
3.4742163806625812
20
1.2966445005773179
42
0.048914901456395689
10
3.6130965276473099
20
1.2071423533898971
42
-0.21380910875265488
10
3.7337927024763173
20
1.0562919476003723
42
0.73556521270651865
10
4.1767503442818308
20
1.0346277046382661
42
-0.21380910875265557
10
4.3115909045714433
20
1.1729802790487274
42
0.04891490145640056
10
4.4585421112213686
20
1.2485029408251089
42
-0.21380910875265499
0
ENDSEC
0
SECTION
2
OBJECTS
0
DICTIONARY
5
C
100
AcDbDictionary
3
ACAD_GROUP
350
D
3
ACAD_MLINESTYLE
350
17
0
DICTIONARY
5
D
100
AcDbDictionary
0
DICTIONARY
5
1A
330
C
100
AcDbDictionary
0
DICTIONARY
5
17
100
AcDbDictionary
0
ENDSEC
0
EOF
