<?xml version="1.0" encoding="utf-8"?>
<svg xmlns="http://www.w3.org/2000/svg" fill="none" height="20" viewBox="0 0 22 20" width="22">
<mask fill="white" id="path-1-inside-1_199_47037">
<path clip-rule="evenodd" d="M0.336966 12.6306C1.7643 17.9575 7.31681 21.098 12.7388 19.6452C14.527 19.1661 16.0777 18.2471 17.3018 17.0396L21.8921 18.6694L19.6922 13.3439C20.38 11.4866 20.5201 9.41552 19.9718 7.36943C18.5445 2.04253 12.992 -1.09803 7.56998 0.354799C2.14796 1.80762 -1.09037 7.30368 0.336966 12.6306ZM8.16382 7.89746H11.7966V13.8506H12.9216V15.9912H8.16382V13.8506H9.38257V10.0381H8.16382V7.89746ZM8.86382 5.38184C8.86382 5.18913 8.89767 5.00944 8.96538 4.84277C9.03829 4.6709 9.13725 4.52246 9.26225 4.39746C9.38725 4.27246 9.53309 4.1735 9.69975 4.10059C9.87163 4.02767 10.0565 3.99121 10.2544 3.99121C10.4419 3.99121 10.619 4.02767 10.7857 4.10059C10.9524 4.1735 11.0982 4.27246 11.2232 4.39746C11.3482 4.52246 11.4471 4.6709 11.5201 4.84277C11.593 5.00944 11.6294 5.18913 11.6294 5.38184C11.6294 5.57454 11.593 5.75684 11.5201 5.92871C11.4471 6.09538 11.3482 6.24121 11.2232 6.36621C11.0982 6.49121 10.9524 6.59017 10.7857 6.66309C10.619 6.736 10.4419 6.77246 10.2544 6.77246C10.0565 6.77246 9.87163 6.736 9.69975 6.66309C9.53309 6.59017 9.38725 6.49121 9.26225 6.36621C9.13725 6.24121 9.03829 6.09538 8.96538 5.92871C8.89767 5.75684 8.86382 5.57454 8.86382 5.38184Z" fill-rule="evenodd"/>
</mask>
<path clip-rule="evenodd" d="M0.336966 12.6306C1.7643 17.9575 7.31681 21.098 12.7388 19.6452C14.527 19.1661 16.0777 18.2471 17.3018 17.0396L21.8921 18.6694L19.6922 13.3439C20.38 11.4866 20.5201 9.41552 19.9718 7.36943C18.5445 2.04253 12.992 -1.09803 7.56998 0.354799C2.14796 1.80762 -1.09037 7.30368 0.336966 12.6306ZM8.16382 7.89746H11.7966V13.8506H12.9216V15.9912H8.16382V13.8506H9.38257V10.0381H8.16382V7.89746ZM8.86382 5.38184C8.86382 5.18913 8.89767 5.00944 8.96538 4.84277C9.03829 4.6709 9.13725 4.52246 9.26225 4.39746C9.38725 4.27246 9.53309 4.1735 9.69975 4.10059C9.87163 4.02767 10.0565 3.99121 10.2544 3.99121C10.4419 3.99121 10.619 4.02767 10.7857 4.10059C10.9524 4.1735 11.0982 4.27246 11.2232 4.39746C11.3482 4.52246 11.4471 4.6709 11.5201 4.84277C11.593 5.00944 11.6294 5.18913 11.6294 5.38184C11.6294 5.57454 11.593 5.75684 11.5201 5.92871C11.4471 6.09538 11.3482 6.24121 11.2232 6.36621C11.0982 6.49121 10.9524 6.59017 10.7857 6.66309C10.619 6.736 10.4419 6.77246 10.2544 6.77246C10.0565 6.77246 9.87163 6.736 9.69975 6.66309C9.53309 6.59017 9.38725 6.49121 9.26225 6.36621C9.13725 6.24121 9.03829 6.09538 8.96538 5.92871C8.89767 5.75684 8.86382 5.57454 8.86382 5.38184Z" fill="#FFC801" fill-rule="evenodd"/>
<path d="M12.7388 19.6452L12.9976 20.6111H12.9976L12.7388 19.6452ZM0.336966 12.6306L-0.62896 12.8894L0.336966 12.6306ZM17.3018 17.0396L17.6364 16.0972L17.0457 15.8875L16.5995 16.3277L17.3018 17.0396ZM21.8921 18.6694L21.5575 19.6118L23.6737 20.3632L22.8163 18.2876L21.8921 18.6694ZM19.6922 13.3439L18.7544 12.9966L18.6184 13.3638L18.7679 13.7256L19.6922 13.3439ZM19.9718 7.36943L20.9378 7.11061L19.9718 7.36943ZM7.56998 0.354799L7.31116 -0.611127V-0.611127L7.56998 0.354799ZM11.7966 7.89746H12.7966V6.89746H11.7966V7.89746ZM8.16382 7.89746V6.89746H7.16382V7.89746H8.16382ZM11.7966 13.8506H10.7966V14.8506H11.7966V13.8506ZM12.9216 13.8506H13.9216V12.8506H12.9216V13.8506ZM12.9216 15.9912V16.9912H13.9216V15.9912H12.9216ZM8.16382 15.9912H7.16382V16.9912H8.16382V15.9912ZM8.16382 13.8506V12.8506H7.16382V13.8506H8.16382ZM9.38257 13.8506V14.8506H10.3826V13.8506H9.38257ZM9.38257 10.0381H10.3826V9.03809H9.38257V10.0381ZM8.16382 10.0381H7.16382V11.0381H8.16382V10.0381ZM8.96538 4.84277L8.0448 4.45222L8.0418 4.45929L8.03891 4.4664L8.96538 4.84277ZM9.69975 4.10059L9.30918 3.17995L9.29893 3.18443L9.69975 4.10059ZM11.5201 4.84277L10.5994 5.23335L10.6039 5.24359L11.5201 4.84277ZM11.5201 5.92871L12.4363 6.32956L12.4406 6.31926L11.5201 5.92871ZM9.69975 6.66309L9.29891 7.5793L9.3092 7.58367L9.69975 6.66309ZM8.96538 5.92871L8.03497 6.29523L8.04178 6.31251L8.04922 6.32953L8.96538 5.92871ZM12.48 18.6793C7.57526 19.9935 2.58299 17.1491 1.30289 12.3718L-0.62896 12.8894C0.94562 18.7658 7.05835 22.2026 12.9976 20.6111L12.48 18.6793ZM16.5995 16.3277C15.496 17.4163 14.0972 18.246 12.48 18.6793L12.9976 20.6111C14.9568 20.0862 16.6594 19.078 18.0041 17.7515L16.5995 16.3277ZM22.2267 17.7271L17.6364 16.0972L16.9672 17.9819L21.5575 19.6118L22.2267 17.7271ZM18.7679 13.7256L20.9678 19.0512L22.8163 18.2876L20.6164 12.9621L18.7679 13.7256ZM19.0059 7.62824C19.4985 9.46663 19.3731 11.326 18.7544 12.9966L20.6299 13.6911C21.3869 11.6471 21.5417 9.3644 20.9378 7.11061L19.0059 7.62824ZM7.8288 1.32072C12.7335 0.00650185 17.7258 2.85086 19.0059 7.62824L20.9378 7.11061C19.3632 1.2342 13.2505 -2.20256 7.31116 -0.611127L7.8288 1.32072ZM1.30289 12.3718C0.0227951 7.59437 2.92405 2.63495 7.8288 1.32072L7.31116 -0.611127C1.37186 0.980303 -2.20354 7.01298 -0.62896 12.8894L1.30289 12.3718ZM11.7966 6.89746H8.16382V8.89746H11.7966V6.89746ZM12.7966 13.8506V7.89746H10.7966V13.8506H12.7966ZM12.9216 12.8506H11.7966V14.8506H12.9216V12.8506ZM13.9216 15.9912V13.8506H11.9216V15.9912H13.9216ZM8.16382 16.9912H12.9216V14.9912H8.16382V16.9912ZM7.16382 13.8506V15.9912H9.16382V13.8506H7.16382ZM9.38257 12.8506H8.16382V14.8506H9.38257V12.8506ZM8.38257 10.0381V13.8506H10.3826V10.0381H8.38257ZM8.16382 11.0381H9.38257V9.03809H8.16382V11.0381ZM7.16382 7.89746V10.0381H9.16382V7.89746H7.16382ZM8.03891 4.4664C7.91926 4.76091 7.86382 5.06938 7.86382 5.38184H9.86382C9.86382 5.30887 9.87608 5.25797 9.89184 5.21915L8.03891 4.4664ZM8.55515 3.69035C8.33428 3.91122 8.16502 4.16883 8.0448 4.45222L9.88596 5.23333C9.91157 5.17297 9.94022 5.13371 9.96936 5.10457L8.55515 3.69035ZM9.29893 3.18443C9.02142 3.30584 8.77089 3.47461 8.55515 3.69035L9.96936 5.10457C10.0036 5.07031 10.0448 5.04116 10.1006 5.01674L9.29893 3.18443ZM10.2544 2.99121C9.93051 2.99121 9.61193 3.05157 9.3092 3.18L10.0903 5.02117C10.1313 5.00376 10.1825 4.99121 10.2544 4.99121V2.99121ZM11.1865 3.18443C10.8895 3.0545 10.5756 2.99121 10.2544 2.99121V4.99121C10.3083 4.99121 10.3485 5.00084 10.3849 5.01674L11.1865 3.18443ZM11.9303 3.69035C11.7146 3.47461 11.464 3.30584 11.1865 3.18443L10.3849 5.01674C10.4407 5.04116 10.4818 5.07031 10.5161 5.10457L11.9303 3.69035ZM12.4406 4.45222C12.3204 4.16883 12.1512 3.91122 11.9303 3.69035L10.5161 5.10457C10.5452 5.13371 10.5739 5.17297 10.5995 5.23333L12.4406 4.45222ZM12.6294 5.38184C12.6294 5.05949 12.5677 4.74242 12.4362 4.44195L10.6039 5.24359C10.6183 5.27646 10.6294 5.31876 10.6294 5.38184H12.6294ZM12.4406 6.31926C12.5677 6.01985 12.6294 5.70432 12.6294 5.38184H10.6294C10.6294 5.44477 10.6183 5.49382 10.5995 5.53816L12.4406 6.31926ZM11.9303 7.07332C12.146 6.85757 12.3148 6.60705 12.4362 6.32953L10.6039 5.52789C10.5795 5.58371 10.5503 5.62485 10.5161 5.6591L11.9303 7.07332ZM11.1865 7.57924C11.464 7.45783 11.7146 7.28906 11.9303 7.07332L10.5161 5.6591C10.4818 5.69336 10.4407 5.72251 10.3849 5.74693L11.1865 7.57924ZM10.2544 7.77246C10.5756 7.77246 10.8895 7.70917 11.1865 7.57924L10.3849 5.74693C10.3485 5.76284 10.3083 5.77246 10.2544 5.77246V7.77246ZM9.3092 7.58367C9.61193 7.7121 9.93052 7.77246 10.2544 7.77246V5.77246C10.1825 5.77246 10.1313 5.75991 10.0903 5.7425L9.3092 7.58367ZM8.55515 7.07332C8.77089 7.28906 9.02142 7.45783 9.29893 7.57924L10.1006 5.74693C10.0448 5.72251 10.0036 5.69336 9.96936 5.6591L8.55515 7.07332ZM8.04922 6.32953C8.17063 6.60705 8.3394 6.85757 8.55515 7.07332L9.96936 5.6591C9.93511 5.62485 9.90596 5.58371 9.88153 5.52789L8.04922 6.32953ZM7.86382 5.38184C7.86382 5.6945 7.9193 6.00162 8.03497 6.29523L9.89579 5.56219C9.87604 5.51205 9.86382 5.45459 9.86382 5.38184H7.86382Z" fill="#FFC801" mask="url(#path-1-inside-1_199_47037)"/>
</svg>