<svg width="32" height="32" viewBox="0 0 32 32" fill="none" xmlns="http://www.w3.org/2000/svg">
<path d="M16.009 2.88245C20.2864 2.88245 20.7927 2.90145 22.4746 2.97646C24.0385 3.04548 24.882 3.30752 25.4453 3.52655C26.1897 3.8146 26.727 4.16465 27.2833 4.72074C27.8467 5.28383 28.1899 5.81491 28.484 6.55902C28.7031 7.12211 28.9653 7.97125 29.0343 9.52849C29.1094 11.2168 29.1284 11.7228 29.1284 15.9925C29.1284 20.2622 29.1094 20.7742 29.0343 22.4565C28.9653 24.0198 28.7031 24.8629 28.484 25.426C28.1959 26.1701 27.8467 26.7072 27.2893 27.2633C26.726 27.8263 26.1947 28.1694 25.4513 28.4634C24.888 28.6825 24.0375 28.9445 22.4806 29.0135C20.7917 29.0885 20.2854 29.1075 16.014 29.1075C11.7426 29.1075 11.2303 29.0885 9.54737 29.0135C7.98349 28.9445 7.14002 28.6825 6.5767 28.4634C5.83228 28.1754 5.29498 27.8263 4.73766 27.2693C4.17435 26.7062 3.83115 26.1751 3.53699 25.432C3.31787 24.8689 3.05572 24.0188 2.98668 22.4625C2.91164 20.7742 2.89263 20.2682 2.89263 15.9985C2.89263 11.7288 2.91164 11.2168 2.98668 9.53449C3.05572 7.97125 3.31787 7.12811 3.53699 6.56503C3.82515 5.82091 4.17535 5.28383 4.73166 4.72674C5.29498 4.16365 5.82628 3.8206 6.5707 3.52655C7.13401 3.30752 7.98349 3.04548 9.54137 2.97646C11.2233 2.90145 11.7306 2.88245 16.008 2.88245H16.009ZM16.009 0.00100016C11.6626 0.00100016 11.1193 0.0200031 9.41129 0.0950148C7.71034 0.170027 6.54068 0.44507 5.52811 0.839131C4.47152 1.2512 3.57701 1.79528 2.68951 2.68942C1.79501 3.57756 1.2507 4.4707 0.838472 5.52086C0.44425 6.54002 0.169095 7.7022 0.0940529 9.40247C0.0190107 11.1157 0 11.6588 0 16.0035C0 20.3482 0.0190107 20.8913 0.0940529 22.5985C0.169095 24.2988 0.44425 25.468 0.838472 26.4801C1.2517 27.5363 1.79501 28.4304 2.68951 29.3176C3.57701 30.2047 4.47152 30.7558 5.52211 31.1619C6.54168 31.5559 7.70433 31.831 9.40529 31.906C11.1122 31.981 11.6566 32 16.003 32C20.3494 32 20.8938 31.981 22.6007 31.906C24.3017 31.831 25.4713 31.5559 26.4839 31.1619C27.5345 30.7558 28.429 30.2057 29.3165 29.3176C30.204 28.4294 30.7553 27.5363 31.1615 26.4861C31.5557 25.467 31.8309 24.3048 31.9059 22.6045C31.981 20.8983 32 20.3542 32 16.0095C32 11.6648 31.981 11.1217 31.9059 9.41447C31.8309 7.71421 31.5557 6.54502 31.1615 5.53286C30.7673 4.4697 30.223 3.57656 29.3295 2.68842C28.442 1.80128 27.5475 1.2502 26.4969 0.844132C25.4773 0.45007 24.3147 0.175027 22.6137 0.100016C20.9008 0.019003 20.3564 0 16.01 0L16.009 0.00100016Z" fill="white"/>
<path d="M16.0088 7.7832C11.4692 7.7832 7.78516 11.4648 7.78516 16.0035C7.78516 20.5422 11.4682 24.2238 16.0088 24.2238C20.5493 24.2238 24.2324 20.5422 24.2324 16.0035C24.2324 11.4658 20.5493 7.7832 16.0088 7.7832V7.7832ZM16.0088 21.3353C13.0631 21.3353 10.6748 18.9479 10.6748 16.0035C10.6748 13.059 13.0631 10.6717 16.0088 10.6717C18.9544 10.6717 21.3428 13.059 21.3428 16.0035C21.3428 18.9479 18.9544 21.3353 16.0088 21.3353Z" fill="white"/>
<path d="M26.4769 7.45824C26.4769 8.51841 25.6174 9.37754 24.5568 9.37754C23.4962 9.37754 22.6367 8.51841 22.6367 7.45824C22.6367 6.39807 23.4962 5.53894 24.5568 5.53894C25.6174 5.53894 26.4769 6.39807 26.4769 7.45824V7.45824Z" fill="white"/>
</svg>
