<svg width="32" height="25" viewBox="0 0 32 25" fill="none" xmlns="http://www.w3.org/2000/svg">
<path d="M17.0151 15.3271L23.2826 21.9037" stroke="#FFC801" stroke-width="1.5"/>
<path d="M12.4568 8.16504L17.0484 15.3614" stroke="#FFC801" stroke-width="1.5"/>
<path d="M27.5053 5.58301L17.0483 15.3618" stroke="#FFC801" stroke-width="1.5"/>
<path d="M17.0155 15.3955L4.17896 17.6336" stroke="#FFC801" stroke-width="1.5"/>
<path d="M20.3672 15.327C20.3672 17.2287 18.8667 18.7702 17.0156 18.7702C15.1646 18.7702 13.6641 17.2287 13.6641 15.327C13.6641 13.4254 15.1646 11.8838 17.0156 11.8838C18.8667 11.8838 20.3672 13.4254 20.3672 15.327Z" fill="#FFC801"/>
<path d="M13.8669 6.5C13.8669 7.88071 12.7774 9 11.4335 9C10.0895 9 9 7.88071 9 6.5C9 5.11929 10.0895 4 11.4335 4C12.7774 4 13.8669 5.11929 13.8669 6.5Z" fill="#FFC801"/>
<path d="M5.8403 18C5.8403 19.6569 4.5329 21 2.92015 21C1.30739 21 0 19.6569 0 18C0 16.3431 1.30739 15 2.92015 15C4.5329 15 5.8403 16.3431 5.8403 18Z" fill="#FFC801"/>
<path d="M26.0347 22.5C26.0347 23.8807 24.9077 25 23.5174 25C22.1271 25 21 23.8807 21 22.5C21 21.1193 22.1271 20 23.5174 20C24.9077 20 26.0347 21.1193 26.0347 22.5Z" fill="#FFC801"/>
<path d="M31.8137 3.5C31.8137 5.433 30.2884 7 28.4068 7C26.5253 7 25 5.433 25 3.5C25 1.567 26.5253 0 28.4068 0C30.2884 0 31.8137 1.567 31.8137 3.5Z" fill="#FFC801"/>
</svg>
