<svg width="32" height="32" viewBox="0 0 32 32" fill="none" xmlns="http://www.w3.org/2000/svg">
<path fill-rule="evenodd" clip-rule="evenodd" d="M3 0C1.34315 0 0 1.34315 0 3V29C0 30.6569 1.34315 32 3 32H29C30.6569 32 32 30.6569 32 29V3C32 1.34315 30.6569 0 29 0H3ZM16.626 3C11.282 3 6.001 6.562 6.001 12.328L6 12.326C6 14.373 6.813 17.357 9.047 18.029C9.06706 18.0331 9.08906 18.0381 9.11199 18.0433C9.17936 18.0587 9.25481 18.076 9.313 18.076C9.828 18.076 10.125 16.638 10.125 16.232C10.125 16.0728 9.99155 15.8545 9.81243 15.5615C9.44685 14.9634 8.891 14.054 8.891 12.701C8.891 8.514 12.079 5.545 16.204 5.545C19.751 5.545 22.376 7.561 22.376 11.264C22.376 14.03 21.267 19.217 17.673 19.217C16.376 19.217 15.267 18.28 15.267 16.936C15.267 15.9598 15.6054 14.9985 15.9464 14.0297C16.2928 13.0455 16.642 12.0535 16.642 11.03C16.642 9.796 15.939 8.796 14.626 8.796C12.845 8.796 11.751 10.796 11.751 12.374C11.751 13.249 11.86 14.218 12.251 15.015C12.0753 15.771 11.8548 16.6175 11.622 17.5117C10.9018 20.2769 10.063 23.4977 10.063 25.906C10.063 26.6433 10.1414 27.3716 10.2203 28.104C10.2468 28.35 10.2734 28.5965 10.297 28.844L10.438 29L10.657 28.922C12.9358 25.802 13.1655 24.8607 13.9637 21.5898C14.0849 21.0929 14.2193 20.5422 14.376 19.922C15.016 21.141 16.672 21.797 17.985 21.797C23.517 21.797 26.001 16.406 26.001 11.547C26.001 6.375 21.532 3 16.626 3Z" fill="white"/>
</svg>
