<?xml version="1.0" encoding="utf-8"?>
<svg xmlns="http://www.w3.org/2000/svg" fill="none" height="20" viewBox="0 0 20 20" width="20">
<g clip-path="url(#clip0_199_47078)">
<path d="M7.11219 15.8314L3.90969 19.0339C3.13307 19.8105 1.87391 19.8105 1.09729 19.0339C0.320664 18.2573 0.320664 16.9981 1.09729 16.2215L4.29978 13.019C4.32567 12.9931 4.36764 12.9931 4.39352 13.019L4.4396 13.0651C4.7191 13.3446 5.17226 13.3446 5.45176 13.0651C5.73126 12.7856 5.73126 12.3324 5.45176 12.0529L5.40568 12.0068C5.37979 11.9809 5.37979 11.939 5.40568 11.9131L5.72823 11.5905C5.93226 11.3865 6.26305 11.3865 6.46708 11.5905L7.50386 12.6273L8.54064 13.6641C8.74467 13.8681 8.74467 14.1989 8.54064 14.4029L8.21808 14.7255C8.1922 14.7514 8.15023 14.7514 8.12434 14.7255L8.07826 14.6794C7.79876 14.3999 7.34561 14.3999 7.06611 14.6794C6.78661 14.9589 6.78661 15.4121 7.06611 15.6916L7.11219 15.7376C7.13807 15.7635 7.13807 15.8055 7.11219 15.8314Z" fill="#FFC801" stroke="#FFC801" stroke-width="0.714581"/>
<path d="M18.4162 3.74228L17.1226 3.97013L11.6552 9.43729L10.6695 8.49976L16.1609 3.00843L16.3887 1.7148L18.595 0.542254L19.0919 1.03918L19.5887 1.53601L18.4162 3.74228Z" fill="#FFC801"/>
<path d="M7.52592 12.6049L8.00672 13.0857L9.49332 11.5991L8.49149 10.6778L7.04518 12.1241L7.52592 12.6049Z" fill="#FFC801"/>
<path d="M18.4162 3.74228L17.1226 3.97013L11.6552 9.43729L10.6695 8.49976L16.1609 3.00843L16.3887 1.7148L18.595 0.542254L19.0919 1.03918L19.5887 1.53601L18.4162 3.74228Z" stroke="#FFC801" stroke-width="0.714581"/>
<path d="M7.52592 12.6049L8.00672 13.0857L9.49332 11.5991L8.49149 10.6778L7.04518 12.1241L7.52592 12.6049Z" stroke="#FFC801" stroke-width="0.714581"/>
<path d="M18.5671 18.5727C19.7389 17.4009 19.7579 15.52 18.6096 14.3716C17.8312 13.5933 16.7163 13.3512 15.7138 13.6409L6.44012 4.36723C6.72983 3.36472 6.48777 2.24984 5.7094 1.47148C4.79879 0.560858 3.42757 0.384277 2.31455 0.934473L4.11073 2.73066L4.10467 3.33081L3.71496 3.72051L3.32526 4.11022L2.72511 4.11628L0.928925 2.3201C0.378729 3.43312 0.55531 4.80433 1.46593 5.71495C2.24429 6.49331 3.35917 6.73537 4.36168 6.44567L13.6354 15.7194C13.3457 16.7219 13.5877 17.8368 14.3661 18.6151C15.5145 19.7635 17.3953 19.7445 18.5671 18.5727Z" fill="#FFC801" stroke="#FFC801"/>
<path d="M16.1882 16.1961L16.55 16.0991L16.8149 16.364L16.718 16.7258L16.3561 16.8228L16.0913 16.5579L16.1882 16.1961Z" fill="#FFC801" stroke="#0270A2" stroke-width="2.00339"/>
</g>
<defs>
<clipPath id="clip0_199_47078">
<rect fill="white" height="20" width="20"/>
</clipPath>
</defs>
</svg>