<svg width="321" height="90" viewBox="0 0 321 90" fill="none" xmlns="http://www.w3.org/2000/svg">
<path d="M0 34.2169H310.619C315.8 34.2169 320 38.4168 320 43.5975V50.1789H9.38061C4.19984 50.1789 0 45.9791 0 40.7983V34.2169Z" fill="#0270A2"/>
<path d="M23.2819 28.7648C21.028 28.7648 19.036 28.4219 17.306 27.7362C15.576 27.0504 14.1201 26.1014 12.9383 24.8891C11.7687 23.6645 10.8793 22.2135 10.2702 20.5358C9.66103 18.8582 9.35645 17.0275 9.35645 15.0437C9.35645 13.0599 9.66103 11.2353 10.2702 9.56995C10.8793 7.89231 11.7687 6.44121 12.9383 5.21666C14.1201 3.99211 15.576 3.03696 17.306 2.35121C19.036 1.66546 21.028 1.32258 23.2819 1.32258C25.5236 1.32258 27.5095 1.66546 29.2395 2.35121C30.9817 3.03696 32.4376 3.99211 33.6072 5.21666C34.789 6.44121 35.6844 7.89231 36.2936 9.56995C36.9027 11.2353 37.2073 13.0599 37.2073 15.0437C37.2073 17.0275 36.9027 18.8582 36.2936 20.5358C35.6844 22.2135 34.789 23.6645 33.6072 24.8891C32.4376 26.1014 30.9817 27.0504 29.2395 27.7362C27.5095 28.4219 25.5236 28.7648 23.2819 28.7648ZM23.2819 24.6136C24.7926 24.6136 26.1084 24.3748 27.2293 23.8972C28.3501 23.4196 29.276 22.7523 30.007 21.8951C30.7502 21.0379 31.2985 20.0276 31.6518 18.8643C32.0173 17.701 32.2 16.4274 32.2 15.0437C32.2 13.6722 32.0173 12.4048 31.6518 11.2415C31.2985 10.0659 30.7502 9.04951 30.007 8.19232C29.276 7.33514 28.3501 6.66776 27.2293 6.19018C26.1084 5.7126 24.7926 5.47382 23.2819 5.47382C21.7712 5.47382 20.4554 5.7126 19.3345 6.19018C18.2137 6.66776 17.2816 7.33514 16.5385 8.19232C15.8075 9.04951 15.2592 10.0659 14.8937 11.2415C14.5404 12.4048 14.3638 13.6722 14.3638 15.0437C14.3638 16.4274 14.5404 17.701 14.8937 18.8643C15.2592 20.0276 15.8075 21.0379 16.5385 21.8951C17.2816 22.7523 18.2137 23.4196 19.3345 23.8972C20.4554 24.3748 21.7712 24.6136 23.2819 24.6136Z" fill="black"/>
<path d="M45.8148 28.2138H41.2278V9.44137H45.8148V12.3068C46.0097 11.719 46.3021 11.2231 46.692 10.819C47.094 10.4026 47.5326 10.0659 48.0078 9.80873C48.4951 9.55158 49.0068 9.36789 49.5429 9.25769C50.0789 9.13523 50.5906 9.074 51.0779 9.074C52.3694 9.074 53.5329 9.26993 54.5684 9.66179C55.604 10.0536 56.4812 10.6292 57.2 11.3884C57.9188 12.1476 58.4732 13.0967 58.863 14.2355C59.2529 15.3743 59.4478 16.6846 59.4478 18.1663V28.2138H54.8608V18.1663C54.8608 16.5499 54.4832 15.2702 53.7278 14.3273C52.9724 13.3844 51.8455 12.913 50.3469 12.913C48.8362 12.913 47.7032 13.3844 46.9478 14.3273C46.1925 15.2702 45.8148 16.5499 45.8148 18.1663V28.2138Z" fill="black"/>
<path d="M63.8521 0.367432H68.4391V21.5277C68.4391 21.9196 68.4451 22.2869 68.4573 22.6298C68.4695 22.9727 68.5122 23.2727 68.5853 23.5298C68.6584 23.787 68.768 23.9952 68.9142 24.1544C69.0726 24.3013 69.2919 24.3748 69.5721 24.3748H70.1752V28.2138H67.8177C66.8309 28.2138 66.0633 28.0117 65.5151 27.6076C64.979 27.1913 64.5891 26.6647 64.3455 26.0279C64.1018 25.3789 63.9556 24.6687 63.9069 23.8972C63.8703 23.1135 63.8521 22.3482 63.8521 21.6012V0.367432Z" fill="black"/>
<path d="M74.2322 9.44137H78.8192V28.2138H74.2322V9.44137ZM73.8301 3.83904C73.8301 3.47167 73.8971 3.12268 74.0312 2.79205C74.1774 2.46142 74.3723 2.17365 74.616 1.92874C74.8596 1.68383 75.1459 1.49402 75.4749 1.35932C75.8038 1.21237 76.151 1.1389 76.5165 1.1389C76.882 1.1389 77.2293 1.21237 77.5582 1.35932C77.8872 1.49402 78.1735 1.68383 78.4171 1.92874C78.6608 2.17365 78.8496 2.46142 78.9836 2.79205C79.1298 3.12268 79.2029 3.47167 79.2029 3.83904C79.2029 4.2064 79.1298 4.5554 78.9836 4.88603C78.8496 5.21666 78.6608 5.50443 78.4171 5.74934C78.1735 5.99425 77.8872 6.19018 77.5582 6.33713C77.2293 6.47183 76.882 6.53918 76.5165 6.53918C76.151 6.53918 75.8038 6.47183 75.4749 6.33713C75.1459 6.19018 74.8596 5.99425 74.616 5.74934C74.3723 5.50443 74.1774 5.21666 74.0312 4.88603C73.8971 4.5554 73.8301 4.2064 73.8301 3.83904Z" fill="black"/>
<path d="M88.1759 28.2138H83.5889V9.44137H88.1759V12.3068C88.3708 11.719 88.6632 11.2231 89.0531 10.819C89.4551 10.4026 89.8937 10.0659 90.3689 9.80873C90.8562 9.55158 91.3679 9.36789 91.904 9.25769C92.44 9.13523 92.9517 9.074 93.4391 9.074C94.7305 9.074 95.894 9.26993 96.9296 9.66179C97.9651 10.0536 98.8423 10.6292 99.5611 11.3884C100.28 12.1476 100.834 13.0967 101.224 14.2355C101.614 15.3743 101.809 16.6846 101.809 18.1663V28.2138H97.2219V18.1663C97.2219 16.5499 96.8443 15.2702 96.0889 14.3273C95.3335 13.3844 94.2066 12.913 92.7081 12.913C91.1973 12.913 90.0643 13.3844 89.3089 14.3273C88.5536 15.2702 88.1759 16.5499 88.1759 18.1663V28.2138Z" fill="black"/>
<path d="M115.351 24.7422C116.057 24.7422 116.697 24.6871 117.269 24.5768C117.842 24.4666 118.366 24.3258 118.841 24.1544C119.316 23.9707 119.743 23.7625 120.12 23.5298C120.498 23.2972 120.845 23.0461 121.162 22.7767L123.94 25.5504C122.819 26.6647 121.54 27.4484 120.102 27.9015C118.677 28.3546 117.093 28.5811 115.351 28.5811C113.742 28.5811 112.323 28.3362 111.093 27.8464C109.862 27.3443 108.833 26.6586 108.004 25.7891C107.176 24.9197 106.548 23.8911 106.122 22.7033C105.695 21.5155 105.482 20.2236 105.482 18.8276C105.482 17.4438 105.695 16.158 106.122 14.9702C106.548 13.7824 107.176 12.7538 108.004 11.8844C108.833 11.0027 109.862 10.3169 111.093 9.8271C112.323 9.32504 113.742 9.074 115.351 9.074C116.959 9.074 118.39 9.32504 119.645 9.8271C120.912 10.3292 121.972 11.07 122.825 12.0497C123.69 13.0171 124.324 14.2232 124.726 15.6682C125.14 17.1009 125.304 18.7541 125.219 20.6277H110.435C110.435 20.9583 110.514 21.3624 110.672 21.84C110.843 22.3053 111.117 22.7584 111.495 23.1992C111.872 23.6278 112.372 23.9952 112.993 24.3013C113.627 24.5952 114.412 24.7422 115.351 24.7422ZM120.267 17.0091C120.267 16.6662 120.187 16.2621 120.029 15.7968C119.871 15.3315 119.603 14.8845 119.225 14.4559C118.847 14.0273 118.342 13.6661 117.708 13.3722C117.075 13.066 116.289 12.913 115.351 12.913C114.412 12.913 113.627 13.066 112.993 13.3722C112.36 13.6661 111.854 14.0273 111.476 14.4559C111.099 14.8845 110.831 15.3315 110.672 15.7968C110.514 16.2621 110.435 16.6662 110.435 17.0091H120.267Z" fill="black"/>
<path d="M143.75 20.4991L151.425 1.87363H158.223V28.2138H153.289V9.58831L145.65 28.2138H141.849L134.21 9.58831V28.2138H129.276V1.87363H136.074L143.75 20.4991Z" fill="black"/>
<path d="M172.112 24.7422C172.819 24.7422 173.459 24.6871 174.031 24.5768C174.604 24.4666 175.128 24.3258 175.603 24.1544C176.078 23.9707 176.504 23.7625 176.882 23.5298C177.26 23.2972 177.607 23.0461 177.924 22.7767L180.701 25.5504C179.581 26.6647 178.301 27.4484 176.864 27.9015C175.438 28.3546 173.855 28.5811 172.112 28.5811C170.504 28.5811 169.085 28.3362 167.854 27.8464C166.624 27.3443 165.594 26.6586 164.766 25.7891C163.937 24.9197 163.31 23.8911 162.884 22.7033C162.457 21.5155 162.244 20.2236 162.244 18.8276C162.244 17.4438 162.457 16.158 162.884 14.9702C163.31 13.7824 163.937 12.7538 164.766 11.8844C165.594 11.0027 166.624 10.3169 167.854 9.8271C169.085 9.32504 170.504 9.074 172.112 9.074C173.72 9.074 175.152 9.32504 176.407 9.8271C177.674 10.3292 178.734 11.07 179.587 12.0497C180.452 13.0171 181.085 14.2232 181.487 15.6682C181.902 17.1009 182.066 18.7541 181.981 20.6277H167.196C167.196 20.9583 167.276 21.3624 167.434 21.84C167.605 22.3053 167.879 22.7584 168.256 23.1992C168.634 23.6278 169.134 23.9952 169.755 24.3013C170.388 24.5952 171.174 24.7422 172.112 24.7422ZM177.028 17.0091C177.028 16.6662 176.949 16.2621 176.791 15.7968C176.632 15.3315 176.364 14.8845 175.987 14.4559C175.609 14.0273 175.103 13.6661 174.47 13.3722C173.836 13.066 173.05 12.913 172.112 12.913C171.174 12.913 170.388 13.066 169.755 13.3722C169.121 13.6661 168.616 14.0273 168.238 14.4559C167.86 14.8845 167.592 15.3315 167.434 15.7968C167.276 16.2621 167.196 16.6662 167.196 17.0091H177.028Z" fill="black"/>
<path d="M183.991 9.44137H187.591V3.94925H192.178V9.44137H197.514V13.2803H192.178V19.9297C192.178 20.6521 192.202 21.3073 192.251 21.8951C192.312 22.4829 192.434 22.991 192.617 23.4196C192.799 23.836 193.067 24.1605 193.421 24.3932C193.774 24.6258 194.255 24.7422 194.864 24.7422C195.34 24.7422 195.778 24.6993 196.18 24.6136C196.582 24.5279 196.978 24.3932 197.368 24.2095L198.392 27.7546C197.624 28.0974 196.881 28.3178 196.162 28.4158C195.443 28.526 194.767 28.5811 194.134 28.5811C192.818 28.5811 191.733 28.3913 190.881 28.0117C190.04 27.6321 189.376 27.0749 188.889 26.3402C188.401 25.6055 188.06 24.6993 187.865 23.6217C187.682 22.5441 187.591 21.3134 187.591 19.9297V13.2803H183.991V9.44137Z" fill="black"/>
<path d="M210.508 12.913C210.008 12.913 209.49 12.9436 208.954 13.0048C208.418 13.066 207.882 13.1518 207.346 13.262C206.81 13.3722 206.28 13.513 205.756 13.6844C205.245 13.8436 204.763 14.0273 204.313 14.2355L202.576 10.9476C203.649 10.323 204.879 9.85772 206.268 9.55158C207.657 9.23319 209.07 9.074 210.508 9.074C212.153 9.074 213.511 9.23932 214.583 9.56995C215.655 9.88833 216.502 10.3904 217.123 11.0761C217.745 11.7619 218.177 12.6436 218.421 13.7212C218.677 14.7865 218.805 16.0662 218.805 17.5602V28.2138H214.218L214.199 25.2565C213.688 26.4443 212.896 27.2953 211.824 27.8097C210.764 28.324 209.539 28.5811 208.15 28.5811C207.139 28.5811 206.195 28.4648 205.318 28.2321C204.441 27.9995 203.679 27.6321 203.033 27.13C202.388 26.628 201.876 25.9851 201.498 25.2014C201.133 24.4176 200.95 23.4809 200.95 22.391C200.95 21.4359 201.121 20.597 201.462 19.8746C201.815 19.1521 202.302 18.5337 202.924 18.0194C203.545 17.505 204.276 17.0887 205.117 16.7703C205.957 16.4397 206.865 16.2009 207.84 16.054C208.826 15.8948 209.862 15.8152 210.946 15.8152C212.031 15.8029 213.121 15.858 214.218 15.9805C214.218 15.3927 214.157 14.9029 214.035 14.511C213.925 14.1192 213.724 13.8069 213.432 13.5742C213.152 13.3293 212.774 13.1579 212.299 13.0599C211.824 12.962 211.227 12.913 210.508 12.913ZM205.555 22.2073C205.555 22.6972 205.647 23.1074 205.829 23.438C206.012 23.7564 206.256 24.0135 206.56 24.2095C206.865 24.4054 207.218 24.5462 207.62 24.6319C208.022 24.7054 208.443 24.7422 208.881 24.7422C209.698 24.7422 210.435 24.6319 211.093 24.4115C211.763 24.1911 212.329 23.9033 212.792 23.5482C213.267 23.1931 213.627 22.7829 213.87 22.3175C214.114 21.8522 214.23 21.3685 214.218 20.8664V18.9561C213.803 18.9317 213.304 18.9133 212.719 18.901C212.134 18.8888 211.519 18.9072 210.873 18.9561C210.228 18.9929 209.588 19.0725 208.954 19.1949C208.321 19.3174 207.748 19.5072 207.237 19.7643C206.737 20.0093 206.329 20.3338 206.012 20.7379C205.708 21.1297 205.555 21.6195 205.555 22.2073Z" fill="black"/>
<path d="M223.209 0.367432H227.796V21.5277C227.796 21.9196 227.802 22.2869 227.814 22.6298C227.826 22.9727 227.869 23.2727 227.942 23.5298C228.015 23.787 228.125 23.9952 228.271 24.1544C228.429 24.3013 228.649 24.3748 228.929 24.3748H229.532V28.2138H227.174C226.188 28.2138 225.42 28.0117 224.872 27.6076C224.336 27.1913 223.946 26.6647 223.702 26.0279C223.459 25.3789 223.312 24.6687 223.264 23.8972C223.227 23.1135 223.209 22.3482 223.209 21.6012V0.367432Z" fill="black"/>
<path d="M246.199 14.2539C245.297 13.7885 244.347 13.4518 243.348 13.2436C242.361 13.0232 241.411 12.913 240.497 12.913C239.425 12.913 238.639 13.0538 238.139 13.3354C237.64 13.6048 237.39 14.0334 237.39 14.6212C237.39 14.9151 237.475 15.1723 237.646 15.3927C237.829 15.6131 238.078 15.809 238.395 15.9805C238.712 16.1397 239.096 16.2866 239.547 16.4213C240.009 16.5438 240.527 16.6601 241.1 16.7703C242.355 17.0152 243.47 17.2846 244.444 17.5785C245.431 17.8602 246.259 18.2337 246.93 18.699C247.612 19.1521 248.13 19.7154 248.483 20.3889C248.848 21.0624 249.031 21.8951 249.031 22.887C249.031 23.8911 248.836 24.7544 248.446 25.4769C248.069 26.1871 247.527 26.7749 246.82 27.2402C246.113 27.6933 245.254 28.0301 244.243 28.2505C243.244 28.4709 242.129 28.5811 240.899 28.5811C240.022 28.5811 239.163 28.526 238.322 28.4158C237.494 28.3056 236.696 28.1525 235.928 27.9566C235.173 27.7607 234.466 27.528 233.808 27.2586C233.163 26.9892 232.59 26.6953 232.09 26.3769L234.028 23.0523C234.515 23.3094 235.039 23.5421 235.599 23.7503C236.16 23.9584 236.732 24.136 237.317 24.2829C237.914 24.4299 238.511 24.5462 239.108 24.6319C239.717 24.7054 240.314 24.7422 240.899 24.7422C241.557 24.7422 242.111 24.6993 242.562 24.6136C243.013 24.5279 243.372 24.3993 243.64 24.2278C243.92 24.0442 244.121 23.8299 244.243 23.585C244.365 23.3278 244.426 23.0339 244.426 22.7033C244.426 22.3726 244.322 22.1032 244.115 21.8951C243.92 21.6747 243.64 21.491 243.275 21.344C242.909 21.1971 242.47 21.0746 241.959 20.9767C241.447 20.8664 240.887 20.7562 240.278 20.646C238.95 20.4011 237.81 20.1011 236.86 19.746C235.922 19.3909 235.148 18.9745 234.539 18.4969C233.942 18.0071 233.504 17.4438 233.223 16.8071C232.943 16.1703 232.803 15.4417 232.803 14.6212C232.803 13.8375 232.937 13.1089 233.205 12.4354C233.485 11.7497 233.93 11.1619 234.539 10.672C235.148 10.17 235.94 9.77812 236.915 9.49647C237.89 9.21483 239.084 9.074 240.497 9.074C242.008 9.074 243.39 9.22095 244.645 9.51484C245.912 9.79649 247.076 10.2679 248.136 10.9292L246.199 14.2539Z" fill="black"/>
<path d="M252.449 26.9328C252.449 27.7043 253.08 28.3518 253.861 28.3518C254.642 28.3518 255.273 27.7043 255.273 26.9328C255.273 26.1613 254.642 25.5139 253.861 25.5139C253.08 25.5139 252.449 26.1613 252.449 26.9328Z" fill="black"/>
<path d="M259.939 21.2846C259.939 18.2538 261.625 15.8981 264.928 15.8981C267.217 15.8981 268.972 17.2481 268.972 17.2481L270.096 15.8154C270.096 15.8154 268.341 14.0796 264.928 14.0796C260.488 14.0796 257.746 17.1104 257.746 21.2846C257.746 25.4587 260.488 28.4895 264.928 28.4895C268.341 28.4895 270.096 26.7537 270.096 26.7537L268.972 25.321C268.972 25.321 267.217 26.6711 264.928 26.6711C261.625 26.6711 259.939 24.3153 259.939 21.2846Z" fill="black"/>
<path d="M279.601 14.0796C275.16 14.0796 272.419 17.1104 272.419 21.2846C272.419 25.4587 275.16 28.4895 279.601 28.4895C284.041 28.4895 286.783 25.4587 286.783 21.2846C286.783 17.1104 284.041 14.0796 279.601 14.0796ZM284.59 21.2846C284.59 24.3153 282.904 26.6711 279.601 26.6711C276.297 26.6711 274.611 24.3153 274.611 21.2846C274.611 18.2538 276.297 15.8981 279.601 15.8981C282.904 15.8981 284.59 18.2538 284.59 21.2846Z" fill="black"/>
<path d="M290.353 28.214H292.463V20.8024C292.463 18.0196 293.478 15.8981 295.931 15.8981C298.385 15.8981 299.399 18.0196 299.399 20.8024V28.214H301.51V20.8024C301.51 18.0196 302.524 15.8981 304.977 15.8981C307.431 15.8981 308.445 18.0196 308.445 20.8024V28.214H310.556V20.8024C310.556 16.4629 308.609 14.0796 304.977 14.0796C301.811 14.0796 300.824 16.9726 300.824 16.9726C300.139 15.5399 298.768 14.0796 295.931 14.0796C293.149 14.0796 292.463 16.4629 292.463 16.4629V14.3551H290.353V28.214Z" fill="black"/>
<path d="M186.703 78.9264V62.1217H193.816C194.902 62.1217 195.84 62.2467 196.629 62.4967C197.426 62.7389 198.082 63.0905 198.598 63.5514C199.113 64.0123 199.496 64.5709 199.746 65.2272C199.996 65.8756 200.121 66.6061 200.121 67.4186C200.121 68.1608 200.016 68.8053 199.805 69.3522C199.602 69.899 199.324 70.3678 198.973 70.7584C198.621 71.1412 198.211 71.4576 197.742 71.7076C197.273 71.9576 196.777 72.153 196.254 72.2936L200.145 78.9264H196.594L192.961 72.7155H189.867V78.9264H186.703ZM189.867 64.7701V70.067H193.816C194.363 70.067 194.832 70.0162 195.223 69.9147C195.621 69.8131 195.945 69.6569 196.195 69.4459C196.453 69.2272 196.641 68.9498 196.758 68.6139C196.875 68.278 196.934 67.8795 196.934 67.4186C196.934 66.4967 196.688 65.8248 196.195 65.403C195.711 64.9811 194.918 64.7701 193.816 64.7701H189.867ZM208.219 76.7115C208.672 76.7115 209.082 76.6764 209.449 76.6061C209.816 76.5358 210.152 76.4459 210.457 76.3365C210.762 76.2194 211.035 76.0865 211.277 75.9381C211.52 75.7897 211.742 75.6295 211.945 75.4576L213.727 77.2272C213.008 77.9381 212.188 78.4381 211.266 78.7272C210.352 79.0162 209.336 79.1608 208.219 79.1608C207.188 79.1608 206.277 79.0045 205.488 78.692C204.699 78.3717 204.039 77.9342 203.508 77.3795C202.977 76.8248 202.574 76.1686 202.301 75.4108C202.027 74.653 201.891 73.8287 201.891 72.9381C201.891 72.0553 202.027 71.235 202.301 70.4772C202.574 69.7194 202.977 69.0631 203.508 68.5084C204.039 67.9459 204.699 67.5084 205.488 67.1959C206.277 66.8756 207.188 66.7155 208.219 66.7155C209.25 66.7155 210.168 66.8756 210.973 67.1959C211.785 67.5162 212.465 67.9889 213.012 68.6139C213.566 69.2311 213.973 70.0006 214.23 70.9225C214.496 71.8365 214.602 72.8912 214.547 74.0865H205.066C205.066 74.2975 205.117 74.5553 205.219 74.86C205.328 75.1569 205.504 75.4459 205.746 75.7272C205.988 76.0006 206.309 76.235 206.707 76.4303C207.113 76.6178 207.617 76.7115 208.219 76.7115ZM211.371 71.778C211.371 71.5592 211.32 71.3014 211.219 71.0045C211.117 70.7076 210.945 70.4225 210.703 70.149C210.461 69.8756 210.137 69.6451 209.73 69.4576C209.324 69.2623 208.82 69.1647 208.219 69.1647C207.617 69.1647 207.113 69.2623 206.707 69.4576C206.301 69.6451 205.977 69.8756 205.734 70.149C205.492 70.4225 205.32 70.7076 205.219 71.0045C205.117 71.3014 205.066 71.5592 205.066 71.778H211.371ZM224.367 71.0631L222.246 78.9264H219.129L215.273 66.9498H218.379L220.641 75.1647L222.879 66.9498H225.855L228.094 75.1647L230.355 66.9498H233.461L229.605 78.9264H226.488L224.367 71.0631ZM240.504 69.1647C240.184 69.1647 239.852 69.1842 239.508 69.2233C239.164 69.2623 238.82 69.317 238.477 69.3873C238.133 69.4576 237.793 69.5475 237.457 69.6569C237.129 69.7584 236.82 69.8756 236.531 70.0084L235.418 67.9108C236.105 67.5123 236.895 67.2155 237.785 67.0201C238.676 66.817 239.582 66.7155 240.504 66.7155C241.559 66.7155 242.43 66.8209 243.117 67.0319C243.805 67.235 244.348 67.5553 244.746 67.9928C245.145 68.4303 245.422 68.9928 245.578 69.6803C245.742 70.36 245.824 71.1764 245.824 72.1295V78.9264H242.883L242.871 77.0397C242.543 77.7975 242.035 78.3405 241.348 78.6686C240.668 78.9967 239.883 79.1608 238.992 79.1608C238.344 79.1608 237.738 79.0865 237.176 78.9381C236.613 78.7897 236.125 78.5553 235.711 78.235C235.297 77.9147 234.969 77.5045 234.727 77.0045C234.492 76.5045 234.375 75.9069 234.375 75.2115C234.375 74.6022 234.484 74.067 234.703 73.6061C234.93 73.1451 235.242 72.7506 235.641 72.4225C236.039 72.0944 236.508 71.8287 237.047 71.6256C237.586 71.4147 238.168 71.2623 238.793 71.1686C239.426 71.067 240.09 71.0162 240.785 71.0162C241.48 71.0084 242.18 71.0436 242.883 71.1217C242.883 70.7467 242.844 70.4342 242.766 70.1842C242.695 69.9342 242.566 69.735 242.379 69.5865C242.199 69.4303 241.957 69.3209 241.652 69.2584C241.348 69.1959 240.965 69.1647 240.504 69.1647ZM237.328 75.0944C237.328 75.4069 237.387 75.6686 237.504 75.8795C237.621 76.0826 237.777 76.2467 237.973 76.3717C238.168 76.4967 238.395 76.5865 238.652 76.6412C238.91 76.6881 239.18 76.7115 239.461 76.7115C239.984 76.7115 240.457 76.6412 240.879 76.5006C241.309 76.36 241.672 76.1764 241.969 75.9498C242.273 75.7233 242.504 75.4615 242.66 75.1647C242.816 74.8678 242.891 74.5592 242.883 74.2389V73.0201C242.617 73.0045 242.297 72.9928 241.922 72.985C241.547 72.9772 241.152 72.9889 240.738 73.0201C240.324 73.0436 239.914 73.0944 239.508 73.1725C239.102 73.2506 238.734 73.3717 238.406 73.5358C238.086 73.692 237.824 73.899 237.621 74.1569C237.426 74.4069 237.328 74.7194 237.328 75.0944ZM256.125 69.5514C255.703 69.2936 255.16 69.1647 254.496 69.1647C253.98 69.1647 253.539 69.2428 253.172 69.399C252.805 69.5553 252.504 69.778 252.27 70.067C252.035 70.3561 251.863 70.7076 251.754 71.1217C251.645 71.5358 251.59 72.0006 251.59 72.5162V78.9264H248.648V66.9498H251.59V68.778C251.715 68.403 251.902 68.0865 252.152 67.8287C252.41 67.5631 252.691 67.3483 252.996 67.1842C253.309 67.0201 253.637 66.903 253.98 66.8326C254.324 66.7545 254.652 66.7155 254.965 66.7155C255.934 66.7155 256.773 66.8756 257.484 67.1959L256.125 69.5514ZM271.312 78.9264H268.371V76.9225C268.184 77.2975 267.934 77.6256 267.621 77.9069C267.309 78.1881 266.965 78.4225 266.59 78.61C266.223 78.7975 265.836 78.9342 265.43 79.0201C265.031 79.1139 264.648 79.1608 264.281 79.1608C263.352 79.1608 262.523 79.0045 261.797 78.692C261.07 78.3717 260.453 77.9342 259.945 77.3795C259.445 76.8248 259.062 76.1686 258.797 75.4108C258.531 74.6451 258.398 73.8209 258.398 72.9381C258.398 72.0553 258.531 71.235 258.797 70.4772C259.062 69.7194 259.445 69.0631 259.945 68.5084C260.453 67.9459 261.07 67.5084 261.797 67.1959C262.523 66.8756 263.352 66.7155 264.281 66.7155C264.648 66.7155 265.031 66.7623 265.43 66.8561C265.836 66.942 266.223 67.0787 266.59 67.2662C266.965 67.4537 267.309 67.6881 267.621 67.9694C267.934 68.2506 268.184 68.5787 268.371 68.9537V61.1608H271.312V78.9264ZM264.891 76.6998C265.508 76.6998 266.035 76.5983 266.473 76.3951C266.918 76.1842 267.281 75.9069 267.562 75.5631C267.844 75.2115 268.047 74.8092 268.172 74.3561C268.305 73.903 268.371 73.4303 268.371 72.9381C268.371 72.4459 268.305 71.9733 268.172 71.5201C268.047 71.067 267.844 70.6686 267.562 70.3248C267.281 69.9733 266.918 69.6959 266.473 69.4928C266.035 69.2819 265.508 69.1764 264.891 69.1764C264.266 69.1764 263.734 69.2819 263.297 69.4928C262.859 69.6959 262.5 69.9733 262.219 70.3248C261.938 70.6686 261.73 71.067 261.598 71.5201C261.473 71.9733 261.41 72.4459 261.41 72.9381C261.41 73.4303 261.473 73.903 261.598 74.3561C261.73 74.8092 261.938 75.2115 262.219 75.5631C262.5 75.9069 262.859 76.1842 263.297 76.3951C263.734 76.5983 264.266 76.6998 264.891 76.6998ZM282.469 70.0201C281.891 69.7233 281.281 69.5084 280.641 69.3756C280.008 69.235 279.398 69.1647 278.812 69.1647C278.125 69.1647 277.621 69.2545 277.301 69.4342C276.98 69.6061 276.82 69.8795 276.82 70.2545C276.82 70.442 276.875 70.6061 276.984 70.7467C277.102 70.8873 277.262 71.0123 277.465 71.1217C277.668 71.2233 277.914 71.317 278.203 71.403C278.5 71.4811 278.832 71.5553 279.199 71.6256C280.004 71.7819 280.719 71.9537 281.344 72.1412C281.977 72.3209 282.508 72.5592 282.938 72.8561C283.375 73.1451 283.707 73.5045 283.934 73.9342C284.168 74.3639 284.285 74.8951 284.285 75.528C284.285 76.1686 284.16 76.7194 283.91 77.1803C283.668 77.6334 283.32 78.0084 282.867 78.3053C282.414 78.5944 281.863 78.8092 281.215 78.9498C280.574 79.0905 279.859 79.1608 279.07 79.1608C278.508 79.1608 277.957 79.1256 277.418 79.0553C276.887 78.985 276.375 78.8873 275.883 78.7623C275.398 78.6373 274.945 78.4889 274.523 78.317C274.109 78.1451 273.742 77.9576 273.422 77.7545L274.664 75.6334C274.977 75.7975 275.312 75.9459 275.672 76.0787C276.031 76.2115 276.398 76.3248 276.773 76.4186C277.156 76.5123 277.539 76.5865 277.922 76.6412C278.312 76.6881 278.695 76.7115 279.07 76.7115C279.492 76.7115 279.848 76.6842 280.137 76.6295C280.426 76.5748 280.656 76.4928 280.828 76.3834C281.008 76.2662 281.137 76.1295 281.215 75.9733C281.293 75.8092 281.332 75.6217 281.332 75.4108C281.332 75.1998 281.266 75.028 281.133 74.8951C281.008 74.7545 280.828 74.6373 280.594 74.5436C280.359 74.4498 280.078 74.3717 279.75 74.3092C279.422 74.2389 279.062 74.1686 278.672 74.0983C277.82 73.942 277.09 73.7506 276.48 73.524C275.879 73.2975 275.383 73.0319 274.992 72.7272C274.609 72.4147 274.328 72.0553 274.148 71.649C273.969 71.2428 273.879 70.778 273.879 70.2545C273.879 69.7545 273.965 69.2897 274.137 68.86C274.316 68.4225 274.602 68.0475 274.992 67.735C275.383 67.4147 275.891 67.1647 276.516 66.985C277.141 66.8053 277.906 66.7155 278.812 66.7155C279.781 66.7155 280.668 66.8092 281.473 66.9967C282.285 67.1764 283.031 67.4772 283.711 67.899L282.469 70.0201Z" fill="#0270A2"/>
<path d="M174.521 72.709H169.276V77.9971H165.834V72.709H160.59V69.3691H165.834V64.0811H169.276V69.3691H174.521V72.709Z" fill="#0270A2"/>
<circle cx="304.487" cy="69.9866" r="4.85638" fill="#FD7938"/>
<path d="M304.483 62.5941L304.483 54.5001" stroke="#0270A2" stroke-width="1.46147" stroke-linecap="round"/>
<path d="M304.483 85.4999L304.483 77.4059" stroke="#0270A2" stroke-width="1.46147" stroke-linecap="round"/>
<path d="M311.906 69.9828H320" stroke="#0270A2" stroke-width="1.46147" stroke-linecap="round"/>
<path d="M289 69.9828H297.094" stroke="#0270A2" stroke-width="1.46147" stroke-linecap="round"/>
<path d="M309.773 75.2309L313.521 78.9796" stroke="#FD7938" stroke-width="1.46147" stroke-linecap="round"/>
<path d="M295.522 60.9804L299.271 64.7291" stroke="#FD7938" stroke-width="1.46147" stroke-linecap="round"/>
<path d="M299.27 75.2313L295.521 78.9801" stroke="#FD7938" stroke-width="1.46147" stroke-linecap="round"/>
<path d="M313.521 60.9801L309.772 64.7289" stroke="#FD7938" stroke-width="1.46147" stroke-linecap="round"/>
</svg>
