<svg width="19" height="20" viewBox="0 0 19 20" fill="none" xmlns="http://www.w3.org/2000/svg">
<path fill-rule="evenodd" clip-rule="evenodd" d="M18.9209 6.71438C17.1288 7.77313 16.5098 10.1019 17.5388 11.9194V11.9187C17.8784 12.5188 18.3558 12.9881 18.9068 13.31L16.9793 16.7144C15.1859 15.6675 12.9041 16.2869 11.8768 18.1012C11.5385 18.7 11.3779 19.3538 11.3798 20H7.52523C7.51481 17.8956 5.84955 16.1925 3.79632 16.1925C3.11661 16.1925 2.47919 16.3787 1.93065 16.705L0.00306452 13.3006C1.78845 12.2406 2.40381 9.91562 1.37658 8.10125C1.03519 7.4975 0.554677 7.02688 0 6.705L1.92697 3.30063C3.72155 4.35437 6.0089 3.73625 7.03797 1.91875C7.38058 1.31437 7.53994 0.6525 7.53503 0H11.3896C11.3896 2.11437 13.0591 3.82812 15.1191 3.82812C15.8025 3.82812 16.443 3.63937 16.9934 3.31L18.9209 6.71438ZM5.48926 10.0005C5.48926 12.2368 7.26729 14.0499 9.46026 14.0499C11.6532 14.0499 13.4313 12.2368 13.4313 10.0005C13.4313 7.7643 11.6532 5.95117 9.46026 5.95117C7.26729 5.95117 5.48926 7.7643 5.48926 10.0005Z" fill="#FFC801"/>
</svg>
