0
SECTION
2
HEADER
9
$INSUNITS
70
4
9
$ACADVER
1
AC1014
9
$HANDSEED
5
FFFF
0
ENDSEC
0
SECTION
2
TABLES
0
TABLE
2
VPORT
5
8
100
AcDbSymbolTable
0
ENDTAB
0
TABLE
2
LTYPE
5
5
100
AcDbSymbolTable
0
LTYPE
5
14
100
AcDbSymbolTableRecord
100
AcDbLinetypeTableRecord
2
BYBLOCK
70
0
0
LTYPE
5
15
100
AcDbSymbolTableRecord
100
AcDbLinetypeTableRecord
2
BYLAYER
70
0
0
ENDTAB
0
TABLE
2
LAYER
5
2
100
AcDbSymbolTable
70
2
0
LAYER
5
50
100
AcDbSymbolTableRecord
100
AcDbLayerTableRecord
2
0
70
0
6
CONTINUOUS
0
ENDTAB
0
TABLE
2
STYLE
5
3
100
AcDbSymbolTable
70
1
0
STYLE
5
11
100
AcDbSymbolTableRecord
100
AcDbTextStyleTableRecord
2
STANDARD
70
0
0
ENDTAB
0
TABLE
2
VIEW
5
6
100
AcDbSymbolTable
70
0
0
ENDTAB
0
TABLE
2
UCS
5
7
100
AcDbSymbolTable
70
0
0
ENDTAB
0
TABLE
2
APPID
5
9
100
AcDbSymbolTable
70
2
0
APPID
5
12
100
AcDbSymbolTableRecord
100
AcDbRegAppTableRecord
2
ACAD
70
0
0
ENDTAB
0
TABLE
2
DIMSTYLE
5
A
100
AcDbSymbolTable
70
1
0
ENDTAB
0
TABLE
2
BLOCK_RECORD
5
1
100
AcDbSymbolTable
70
1
0
BLOCK_RECORD
5
1F
100
AcDbSymbolTableRecord
100
AcDbBlockTableRecord
2
*MODEL_SPACE
0
BLOCK_RECORD
5
1B
100
AcDbSymbolTableRecord
100
AcDbBlockTableRecord
2
*PAPER_SPACE
0
ENDTAB
0
ENDSEC
0
SECTION
2
BLOCKS
0
BLOCK
5
20
100
AcDbEntity
100
AcDbBlockBegin
2
*MODEL_SPACE
0
ENDBLK
5
21
100
AcDbEntity
100
AcDbBlockEnd
0
BLOCK
5
1C
100
AcDbEntity
100
AcDbBlockBegin
2
*PAPER_SPACE
0
ENDBLK
5
1D
100
AcDbEntity
100
AcDbBlockEnd
0
ENDSEC
0
SECTION
2
ENTITIES
0
LWPOLYLINE
5
100
100
AcDbEntity
8
OUTER_PROFILES
100
AcDbPolyline
90
18
70
1
43
0.0
10
-14.635170907035482
20
37.600912530306644
10
28.289546231958774
20
30.236195391312741
10
30.5328708116356
20
30.532870811635568
10
56.553823206243095
20
30.532870811635568
42
-0.26794919243112525
10
58.75352773185557
20
29.262870811635565
10
66.849635969764705
20
15.239999999999991
42
0.2679491924311217
10
69.049340495377152
20
13.969999999999981
10
78.816401127893897
20
13.969999999999965
42
0.26794919243111298
10
81.016105653506344
20
15.239999999999965
10
89.112213891415507
20
29.262870811635551
42
-0.26794919243112308
10
91.311918417027954
20
30.532870811635547
10
117.33287081163553
20
30.532870811635576
10
119.57619539131267
20
30.236195391312599
10
162.50091253030604
20
37.600912530306118
10
176.84719802548258
20
28.981456402211705
10
147.86574162327105
20
0
10
0
20
0
10
-28.981456402212309
20
28.98145640221238
0
CIRCLE
5
101
100
AcDbEntity
8
INTERIOR_PROFILES
100
AcDbCircle
10
-27.357870811635525
20
17.562102448428895
30
0
40
2.1590000000000042
210
0
220
0
230
-1
0
CIRCLE
5
102
100
AcDbEntity
8
INTERIOR_PROFILES
100
AcDbCircle
10
-91.932870811635524
20
25.182102448428921
30
0
40
2.1589999999999954
210
0
220
0
230
-1
0
CIRCLE
5
103
100
AcDbEntity
8
INTERIOR_PROFILES
100
AcDbCircle
10
-50.217870811635521
20
17.562102448428888
30
0
40
2.1589999999999954
210
0
220
0
230
-1
0
CIRCLE
5
104
100
AcDbEntity
8
INTERIOR_PROFILES
100
AcDbCircle
10
-55.932870811635524
20
25.182102448428925
30
0
40
2.1589999999999954
210
0
220
0
230
-1
0
CIRCLE
5
105
100
AcDbEntity
8
INTERIOR_PROFILES
100
AcDbCircle
10
-103.36287081163555
20
25.182102448428914
30
0
40
2.1589999999999954
210
0
220
0
230
-1
0
CIRCLE
5
106
100
AcDbEntity
8
INTERIOR_PROFILES
100
AcDbCircle
10
-33.072870811635518
20
25.182102448428935
30
0
40
2.1589999999999998
210
0
220
0
230
-1
0
CIRCLE
5
107
100
AcDbEntity
8
INTERIOR_PROFILES
100
AcDbCircle
10
-120.50787081163551
20
17.56210244842887
30
0
40
2.1590000000000131
210
0
220
0
230
-1
0
CIRCLE
5
108
100
AcDbEntity
8
INTERIOR_PROFILES
100
AcDbCircle
10
-97.647870811635542
20
17.562102448428877
30
0
40
2.1589999999999954
210
0
220
0
230
-1
0
CIRCLE
5
109
100
AcDbEntity
8
INTERIOR_PROFILES
100
AcDbCircle
10
-109.07787081163553
20
17.562102448428874
30
0
40
2.1589999999999954
210
0
220
0
230
-1
0
CIRCLE
5
110
100
AcDbEntity
8
INTERIOR_PROFILES
100
AcDbCircle
10
-38.787870811635521
20
17.562102448428892
30
0
40
2.1589999999999998
210
0
220
0
230
-1
0
CIRCLE
5
111
100
AcDbEntity
8
INTERIOR_PROFILES
100
AcDbCircle
10
-114.79287081163554
20
25.182102448428914
30
0
40
2.1589999999999954
210
0
220
0
230
-1
0
CIRCLE
5
112
100
AcDbEntity
8
INTERIOR_PROFILES
100
AcDbCircle
10
-44.502870811635525
20
25.182102448428935
30
0
40
2.1590000000000042
210
0
220
0
230
-1
0
LINE
5
113
100
AcDbEntity
8
BEND
100
AcDbLine
10
29.358889474611438
20
30.332214054288464
30
-1.5761949502472324e-13
11
-0.48666228983854865
21
0.48666228983845095
31
-4.0489652892254593e-15
0
LINE
5
114
100
AcDbEntity
8
BEND
100
AcDbLine
10
148.3524039131095
20
0.48666228983859305
30
5.7992104062095357e-14
11
118.50685214865976
21
30.332214054288393
31
6.8801653054709984e-14
0
LINE
5
115
100
AcDbEntity
8
BEND_EXTENT
100
AcDbLine
10
-0.97332457967698183
20
0.97332457967691965
30
-2.6499191979772506e-14
11
28.289546231958774
21
30.236195391312741
31
-3.1066969303845438e-13
0
LINE
5
116
100
AcDbEntity
8
BEND_EXTENT
100
AcDbLine
10
119.57619539131267
20
30.236195391312599
30
9.7506872310424226e-14
11
148.83906620294806
21
0.97332457967716834
31
1.0643524975278377e-13
0
LINE
5
117
100
AcDbEntity
8
BEND_EXTENT
100
AcDbLine
10
147.86574162327105
20
0
30
-4.4408920985006246e-15
11
117.33287081163553
21
30.532870811635576
31
1.7907686428457283e-14
0
LINE
5
118
100
AcDbEntity
8
BEND_EXTENT
100
AcDbLine
10
30.532870811635526
20
30.53287081163554
30
3.0942126655049605e-14
11
0
21
0
31
0
0
ENDSEC
0
SECTION
2
OBJECTS
0
DICTIONARY
5
C
100
AcDbDictionary
3
ACAD_GROUP
350
D
3
ACAD_MLINESTYLE
350
17
0
DICTIONARY
5
D
100
AcDbDictionary
0
DICTIONARY
5
1A
330
C
100
AcDbDictionary
0
DICTIONARY
5
17
100
AcDbDictionary
0
ENDSEC
0
EOF
